<svg width="964" height="973" xmlns="http://www.w3.org/2000/svg" xmlns:xlink="http://www.w3.org/1999/xlink" xml:space="preserve" overflow="hidden"><defs><clipPath id="clip0"><rect x="2730" y="698" width="964" height="973"/></clipPath><clipPath id="clip1"><rect x="2825" y="698" width="658" height="661"/></clipPath><clipPath id="clip2"><rect x="2825" y="698" width="658" height="661"/></clipPath><clipPath id="clip3"><rect x="2730" y="1340" width="964" height="331"/></clipPath><clipPath id="clip4"><rect x="2730" y="1340" width="964" height="331"/></clipPath></defs><g clip-path="url(#clip0)" transform="translate(-2730 -698)"><g clip-path="url(#clip1)"><g clip-path="url(#clip2)"><path d="M457.893 1248.01C447.44 1242.11 441.986 1235.97 437.896 1225.29 431.988 1210.29 432.897 1197.57 440.623 1187.11 449.712 1174.39 454.03 1171.21 467.21 1166.89 478.345 1163.25 479.027 1163.48 491.071 1168.03 509.704 1175.3 518.34 1185.3 521.748 1203.47 523.339 1212.79 517.885 1229.84 510.386 1238.02 498.342 1251.42 472.664 1256.42 457.893 1248.01Z" fill="#E02D27" transform="matrix(1.00005 0 0 -1 2679.27 1967.53)"/><path d="M380.631 1197.34C339.727 1177.11 332.228 1169.84 342.681 1160.53 348.362 1155.3 355.861 1155.75 365.178 1161.44 373.586 1166.66 392.22 1174.16 404.037 1177.11 413.808 1179.61 420.398 1185.52 420.398 1192.11 420.398 1205.97 402.673 1208.25 380.631 1197.34Z" fill="#E02D27" transform="matrix(1.00005 0 0 -1 2679.27 1967.53)"/><path d="M537.882 1203.02C536.973 1202.11 536.292 1197.57 536.292 1192.79 536.292 1183.25 540.382 1179.84 556.744 1175.07 562.425 1173.48 573.787 1168.71 582.195 1164.39 600.601 1155.07 609.691 1154.39 614.918 1162.34 622.644 1173.93 611.963 1183.48 577.65 1195.52 556.971 1203.02 540.837 1205.97 537.882 1203.02Z" fill="#E02D27" transform="matrix(1.00005 0 0 -1 2679.27 1967.53)"/><path d="M277.008 1177.8C268.6 1176.43 252.693 1162.34 248.83 1152.8 242.922 1138.94 246.103 1116.67 255.193 1108.03 265.873 1097.81 274.054 1094.17 287.689 1094.17 299.733 1094.17 303.368 1095.08 311.776 1100.99 323.138 1108.94 331.774 1124.17 331.774 1136.44 331.774 1147.8 321.775 1164.84 311.095 1171.89 302.459 1177.57 289.052 1180.07 277.008 1177.8Z" fill="#E02D27" transform="matrix(1.00005 0 0 -1 2679.27 1967.53)"/><path d="M648.549 1175.3C643.55 1172.8 636.051 1166.89 632.188 1161.66 625.825 1153.71 624.916 1150.98 624.916 1138.48 624.916 1122.58 626.734 1118.03 638.096 1105.99 651.731 1091.9 669.683 1089.85 689.908 1100.31 705.36 1108.26 713.541 1130.08 708.087 1148.03 703.997 1161.89 699.906 1167.34 689.453 1172.8 676.273 1179.39 659.911 1180.52 648.549 1175.3Z" fill="#E02D27" transform="matrix(1.00005 0 0 -1 2679.27 1967.53)"/><path d="M1688.41 1082.58C1685.68 1075.54 1685.46 802.392 1687.96 798.075 1689.55 796.03 1709.54 795.348 1780.67 795.802L1871.34 796.484 1871.34 822.617 1871.34 848.75 1809.98 849.886 1748.63 851.022 1747.95 967.825C1747.49 1058.04 1746.81 1085.31 1744.54 1086.67 1743.18 1087.58 1730.22 1088.49 1716.13 1088.49 1690.68 1088.49 1690.46 1088.49 1688.41 1082.58Z" fill="#E02D27" transform="matrix(1.00005 0 0 -1 2679.27 1967.53)"/><path d="M694.452 1080.54C691.271 1077.58 688.544 1074.17 688.544 1073.27 688.544 1072.13 692.634 1063.27 697.634 1053.27 702.633 1043.27 706.723 1033.73 706.723 1031.68 706.723 1029.86 708.314 1026.23 710.132 1023.95 711.95 1021.45 713.541 1017.36 713.541 1014.64 713.541 1008.73 721.494 999.866 726.721 999.866 732.856 999.866 740.81 1006.46 740.81 1011.23 740.81 1013.73 739.446 1018.95 737.628 1023.04 736.038 1027.14 732.629 1036 730.584 1042.81 725.585 1057.81 714.222 1079.63 709.223 1083.26 703.997 1087.35 701.27 1086.9 694.452 1080.54Z" fill="#E02D27" transform="matrix(1.00005 0 0 -1 2679.27 1967.53)"/><path d="M244.058 1077.81C235.196 1068.27 215.88 1023.27 215.88 1011.91 215.88 1002.59 225.197 997.366 234.968 1001.23 237.014 1001.91 240.195 1008.5 242.24 1015.55 244.285 1022.59 249.966 1036.22 254.966 1046.22 264.964 1066.22 266.555 1076.22 260.192 1080.76 254.057 1085.31 250.421 1084.63 244.058 1077.81Z" fill="#E02D27" transform="matrix(1.00005 0 0 -1 2679.27 1967.53)"/><path d="M412.445 1030.54 353.362 1000.55 353.589 992.14C353.816 983.277 359.724 974.869 365.633 974.869 369.269 974.869 427.215 1003.05 456.53 1019.18 464.483 1023.5 473.8 1027.14 477.209 1027.14 483.799 1027.14 573.559 982.596 583.331 974.415 588.103 970.552 594.011 974.415 599.92 984.868 604.692 993.73 604.919 995.321 601.965 998.957 600.147 1001 595.829 1004.41 591.966 1006 588.33 1007.82 582.649 1010.55 579.468 1011.91 576.514 1013.5 566.742 1018.27 557.88 1023.04 496.752 1054.63 483.117 1061.22 477.663 1060.99 474.255 1060.77 444.94 1047.13 412.445 1030.54Z" fill="#E02D27" transform="matrix(1.00005 0 0 -1 2679.27 1967.53)"/><path d="M1352.77 1010.09C1318.01 1002.14 1296.19 982.823 1283.01 948.736 1276.65 931.921 1276.42 876.701 1282.78 858.976 1285.05 852.159 1288.46 844.887 1290.05 842.842 1291.65 841.024 1293.01 838.524 1293.01 837.615 1293.01 833.525 1308.46 816.254 1316.64 810.8 1337.09 797.848 1353.45 793.303 1386.18 792.167 1409.81 791.258 1444.35 801.256 1457.76 813.073 1473.89 826.935 1487.07 854.885 1481.62 863.521 1480.03 866.02 1473.89 867.156 1456.62 867.611 1437.08 868.293 1432.99 867.838 1429.13 864.43 1426.85 862.384 1424.81 858.749 1424.81 856.703 1424.81 854.658 1421.17 849.432 1416.63 845.114 1409.81 838.524 1406.86 837.16 1394.59 836.252 1362.09 833.525 1347.32 842.614 1338.23 870.792 1334.14 883.063 1333.68 886.927 1335.96 889.199 1338 891.244 1357.77 892.153 1410.72 893.062L1482.76 894.198 1482.76 914.65C1482.76 946.464 1476.17 963.962 1456.62 983.959 1437.31 1003.73 1420.04 1010.77 1387.31 1012.36 1374.36 1013.05 1361.64 1012.14 1352.77 1010.09ZM1403.22 968.279C1414.36 963.28 1418.67 958.508 1423.67 945.782 1430.04 929.875 1428.9 929.421 1380.5 929.421 1330.73 929.421 1330.05 929.648 1340.05 948.055 1349.36 965.552 1360.73 972.37 1379.36 972.37 1388.9 972.597 1397.31 971.006 1403.22 968.279Z" fill="#E02D27" transform="matrix(1.00005 0 0 -1 2679.27 1967.53)"/><path d="M1984.05 1011C1949.74 1005.32 1923.61 982.823 1910.65 948.055 1903.84 929.875 1903.15 876.473 1909.74 861.248 1923.61 827.616 1935.2 813.982 1959.28 802.62 1972.01 796.711 1978.83 795.121 2008.82 791.939 2017.23 791.03 2054.27 796.711 2063.36 800.347 2074.27 804.438 2086.31 813.073 2094.95 823.071 2103.58 832.843 2111.99 855.113 2109.94 862.839 2108.81 867.838 2107.9 868.065 2084.95 868.065 2064.04 868.065 2060.41 867.384 2056.54 863.521 2054.04 861.021 2052 857.612 2052 856.022 2052 854.431 2048.13 849.204 2043.14 844.432 2034.5 836.024 2034.27 836.024 2015.18 835.797 1985.87 835.57 1974.96 843.523 1965.65 871.701 1960.65 886.472 1960.65 887.154 1964.74 890.108 1967.92 892.38 1984.05 893.062 2039.95 893.062L2111.08 893.062 2111.08 911.696C2111.08 962.598 2085.86 997.139 2040.18 1009.18 2022.91 1013.73 2004.28 1014.41 1984.05 1011ZM2031.32 968.052C2041.77 962.825 2048.36 955.099 2052 943.964 2056.77 929.875 2054.95 929.194 2006.78 929.875L1964.51 930.557 1963.83 936.238C1962.92 944.192 1975.64 962.598 1985.87 968.052 1997.23 973.96 2019.73 974.188 2031.32 968.052Z" fill="#E02D27" transform="matrix(1.00005 0 0 -1 2679.27 1967.53)"/><path d="M2233.79 1011.91C2190.16 1005.32 2164.26 982.141 2166.07 951.463L2166.75 939.647 2189.71 938.965C2214.93 938.283 2216.07 938.738 2219.48 951.918 2220.61 956.69 2224.93 962.371 2229.93 966.461 2237.43 972.597 2239.93 973.279 2254.7 973.506 2281.74 973.733 2290.83 964.871 2291.51 937.374L2291.74 928.285 2279.24 926.694C2272.42 925.785 2256.06 923.967 2242.88 922.831 2200.16 918.74 2184.93 913.514 2168.12 897.834 2156.98 887.381 2151.98 874.428 2151.98 854.885 2151.98 822.39 2171.75 799.666 2205.16 793.984 2231.97 789.44 2258.11 795.575 2280.6 811.709 2286.06 815.572 2291.28 818.072 2292.19 817.163 2293.1 816.481 2294.24 811.482 2294.92 806.028L2296.28 796.484 2322.42 796.484 2348.55 796.484 2349.23 870.338C2349.46 917.377 2349 947.827 2347.41 954.417 2346.05 960.099 2344.23 967.37 2343.32 970.779 2340.82 980.323 2326.05 996.457 2314.92 1001.91 2295.83 1011.23 2258.33 1015.77 2233.79 1011.91ZM2290.15 875.792C2290.83 861.021 2290.15 858.976 2284.69 852.386 2277.19 843.523 2256.74 833.525 2242.88 832.161 2227.88 830.798 2215.61 836.933 2211.29 848.295 2208.57 855.794 2208.57 858.294 2211.29 867.611 2214.02 876.246 2216.52 879.2 2224.25 883.518 2236.06 890.108 2250.38 892.608 2272.42 892.38L2289.47 891.926 2290.15 875.792Z" fill="#E02D27" transform="matrix(1.00005 0 0 -1 2679.27 1967.53)"/><path d="M2498.98 1008.27C2487.62 1004.18 2480.58 1000.09 2472.62 992.14L2461.72 981.232 2459.67 994.639 2457.62 1007.82 2431.49 1007.82 2405.36 1007.82 2405.36 902.152 2405.36 796.484 2432.63 796.484 2459.9 796.484 2461.03 866.929C2461.94 916.468 2463.08 938.738 2464.9 942.146 2470.81 952.372 2503.98 965.78 2523.07 965.78L2529.43 965.78 2528.75 989.186 2528.07 1012.36 2521.25 1012.82C2517.62 1013.27 2507.39 1011 2498.98 1008.27Z" fill="#E02D27" transform="matrix(1.00005 0 0 -1 2679.27 1967.53)"/><path d="M2672.37 1009.18C2656.23 1003.96 2650.33 1000.77 2639.87 991.685 2628.28 981.005 2624.65 981.459 2624.65 993.73 2624.65 999.184 2623.51 1004.64 2621.92 1006.23 2617.83 1010.32 2573.75 1009.86 2570.34 1005.77 2568.52 1003.73 2568.06 973.96 2568.29 899.652L2568.97 796.484 2597.38 796.484 2625.78 796.484 2626.92 868.065C2627.6 907.378 2628.97 941.01 2630.1 942.601 2631.01 944.419 2638.06 950.327 2645.55 955.781 2658.73 965.325 2659.87 965.78 2675.78 965.78 2689.64 965.78 2693.05 964.871 2697.82 960.78 2709.18 950.1 2709.64 946.919 2711 869.202L2712.14 796.484 2739.41 796.484 2766.67 796.484 2766.67 878.291C2766.67 973.96 2766.22 976.233 2746 995.321 2727.36 1013.05 2700.09 1018.05 2672.37 1009.18Z" fill="#E02D27" transform="matrix(1.00005 0 0 -1 2679.27 1967.53)"/><path d="M906.015 1007.36C905.106 1006.68 904.424 996.912 904.424 985.777L904.424 965.78 920.104 965.78C930.33 965.78 936.465 964.643 938.283 962.825 939.874 960.78 941.01 933.738 941.237 878.064L941.919 796.484 967.825 795.802C985.095 795.348 994.639 796.03 996.685 797.848 999.411 800.12 999.866 814.436 999.866 881.245 999.639 925.558 1000.55 962.825 1001.68 963.962 1002.82 965.098 1014.86 965.552 1028.5 965.325L1053.27 964.643 1054.4 902.152C1055.54 842.387 1055.77 839.206 1060.99 828.98 1071.45 807.846 1089.63 798.302 1125.08 796.03 1138.03 795.121 1142.8 795.575 1144.16 797.848 1146.44 801.256 1146.44 834.888 1144.16 838.297 1143.48 839.66 1139.62 840.796 1135.98 840.796 1128.26 840.796 1120.53 844.205 1116.44 849.659 1114.4 852.386 1113.71 868.747 1113.49 908.287L1113.49 963.507 1118.71 964.643C1121.44 965.325 1130.3 966.007 1138.48 966.234L1153.25 966.916 1153.94 984.641C1154.39 996.003 1153.71 1003.73 1151.89 1005.77 1149.62 1008.5 1129.39 1008.96 1028.27 1008.96 961.917 1008.96 906.697 1008.27 906.015 1007.36Z" fill="#E02D27" transform="matrix(1.00005 0 0 -1 2679.27 1967.53)"/><path d="M444.259 985.322C429.261 977.596 411.99 968.279 405.855 965.098 399.719 961.689 393.584 958.962 391.993 958.962 390.629 958.962 386.994 956.463 384.267 953.509L379.04 948.055 423.125 926.012C447.213 913.968 467.892 903.061 469.255 901.925 470.391 900.788 473.573 899.879 476.527 899.879 483.344 899.879 574.923 945.555 574.923 948.964 574.923 951.009 523.793 979.414 506.75 987.14 504.932 987.822 499.251 991.003 494.252 994.185 489.253 997.139 482.208 999.639 478.345 999.639 474.255 999.639 460.393 993.958 444.259 985.322Z" fill="#E02D27" transform="matrix(1.00005 0 0 -1 2679.27 1967.53)"/><path d="M186.793 979.414C175.658 971.233 168.159 957.826 168.159 945.782 168.159 935.102 174.977 918.513 182.248 911.923 192.929 902.379 208.836 896.698 216.562 899.879 219.289 901.016 224.061 902.379 227.242 903.061 239.968 905.788 254.511 926.467 254.511 941.919 254.511 950.327 249.058 964.871 243.604 971.233 228.833 987.822 203.382 991.458 186.793 979.414Z" fill="#E02D27" transform="matrix(1.00005 0 0 -1 2679.27 1967.53)"/><path d="M724.221 981.459C714.222 976.233 705.814 964.189 701.951 949.645 699.452 940.328 699.679 938.283 704.906 926.694 712.859 909.196 727.857 899.879 747.627 899.879 758.535 899.879 776.941 911.923 782.168 922.831 789.44 937.602 789.667 946.464 782.85 960.326 771.26 983.732 746.036 993.049 724.221 981.459Z" fill="#E02D27" transform="matrix(1.00005 0 0 -1 2679.27 1967.53)"/><path d="M1522.07 924.649C1518.66 922.831 1517.98 918.968 1517.98 902.606 1517.98 890.108 1518.89 881.7 1520.71 879.882 1524.57 876.019 1634.1 876.019 1637.96 879.882 1639.78 881.7 1640.69 890.108 1640.69 902.606 1640.69 919.877 1640.23 922.831 1636.37 924.876 1630.46 927.83 1527.3 927.83 1522.07 924.649Z" fill="#E02D27" transform="matrix(1.00005 0 0 -1 2679.27 1967.53)"/><path d="M393.129 885.336C393.129 871.02 393.811 857.612 394.493 855.794 395.174 853.749 404.264 848.068 414.49 842.842 435.623 832.388 437.896 831.025 444.259 827.616 457.439 819.89 475.164 811.255 477.209 811.255 478.799 811.255 489.707 816.254 501.751 822.39 546.972 844.887 561.061 853.522 562.425 859.885 563.106 862.384 563.561 874.883 563.106 887.381 562.425 908.287 561.97 910.105 557.88 910.787 555.38 911.014 548.563 908.969 543.109 905.788 537.428 902.833 520.385 893.971 505.16 886.245L477.436 872.383 456.302 882.836C444.713 888.517 433.578 894.198 431.76 895.335 418.58 902.606 399.946 911.241 396.765 911.241 393.584 911.241 393.129 907.606 393.129 885.336Z" fill="#E02D27" transform="matrix(1.00005 0 0 -1 2679.27 1967.53)"/><path d="M719.676 882.154C717.631 879.882 713.541 870.565 710.587 861.703 707.632 852.613 703.997 843.978 702.633 842.614 701.042 841.024 699.906 838.751 699.906 837.16 699.906 835.797 697.861 829.661 695.134 823.753 689.453 810.8 690.816 802.847 699.224 800.802 702.406 799.893 706.723 800.347 708.769 801.483 716.268 806.256 740.81 862.612 740.81 875.11 740.81 880.109 739.446 882.382 734.901 883.972 726.721 887.154 723.767 886.927 719.676 882.154Z" fill="#E02D27" transform="matrix(1.00005 0 0 -1 2679.27 1967.53)"/><path d="M217.471 882.382C215.198 880.337 215.426 864.884 217.698 862.384 218.607 861.021 221.788 853.976 224.743 846.477 233.605 823.299 243.604 804.438 247.921 801.938 254.284 798.529 263.374 801.938 264.964 808.073 265.873 811.255 264.056 817.845 260.647 825.344 249.058 849.659 243.831 862.612 242.467 870.111 241.559 874.428 239.741 879.2 238.377 881.018 235.65 883.972 220.198 885.109 217.471 882.382Z" fill="#E02D27" transform="matrix(1.00005 0 0 -1 2679.27 1967.53)"/><path d="M273.827 789.44C249.058 780.35 238.377 753.308 250.648 729.448 258.374 713.995 270.418 706.723 288.37 706.496 300.869 706.269 304.05 707.178 312.231 712.859 324.729 721.721 331.774 734.447 331.774 748.763 331.774 767.17 316.776 786.031 298.824 790.576 286.552 793.757 285.189 793.53 273.827 789.44Z" fill="#E02D27" transform="matrix(1.00005 0 0 -1 2679.27 1967.53)"/><path d="M656.048 790.576C636.733 786.031 624.916 770.351 624.916 748.763 624.916 734.674 630.597 723.312 643.096 712.859 649.231 707.632 652.413 706.723 664.911 706.723 682.181 706.723 689.226 709.905 700.361 722.403 720.585 745.582 708.769 782.168 678.545 790.349 666.729 793.303 667.865 793.303 656.048 790.576Z" fill="#E02D27" transform="matrix(1.00005 0 0 -1 2679.27 1967.53)"/><path d="M342.227 723.539C331.092 712.404 344.045 700.361 378.358 689.908 385.857 687.635 395.174 684.454 398.81 683.09 412.217 677.636 423.352 685.135 419.262 696.725 417.444 701.951 414.035 704.224 402.219 708.314 387.903 713.313 378.131 717.404 365.406 723.994 357.452 728.311 346.544 728.084 342.227 723.539Z" fill="#E02D27" transform="matrix(1.00005 0 0 -1 2679.27 1967.53)"/><path d="M582.876 720.358C575.377 716.949 564.697 712.177 559.016 710.132 539.019 702.633 537.428 701.497 536.746 692.407 536.292 686.272 536.973 683.545 539.7 682.636 545.381 680.363 565.833 685.59 586.74 694.68 617.417 707.86 623.78 714.45 614.009 723.312 608.1 728.766 598.556 727.857 582.876 720.358Z" fill="#E02D27" transform="matrix(1.00005 0 0 -1 2679.27 1967.53)"/><path d="M459.029 715.359C453.576 712.404 445.849 706.269 442.213 701.497 436.078 693.771 435.169 690.816 435.169 678.773 435.169 666.729 436.305 663.093 442.668 654.003 466.756 619.235 516.294 632.642 521.748 675.591 523.339 688.544 515.385 703.088 501.069 713.086 487.662 722.176 474.027 722.858 459.029 715.359Z" fill="#E02D27" transform="matrix(1.00005 0 0 -1 2679.27 1967.53)"/></g></g><g clip-path="url(#clip3)"><g clip-path="url(#clip4)"><g><path d="M228.89 623.852C223.665 620.899 220.938 617.832 218.894 612.493 215.94 604.996 216.395 598.635 220.257 593.41 224.8 587.048 226.959 585.458 233.547 583.3 239.113 581.482 239.454 581.596 245.474 583.868 254.789 587.503 259.105 592.501 260.809 601.588 261.605 606.246 258.878 614.765 255.13 618.854 249.109 625.556 236.273 628.055 228.89 623.852Z" fill="#E02D27" transform="matrix(1 0 0 -1.00025 2298.55 1975.77)"/><path d="M190.268 598.521C169.821 588.411 166.073 584.776 171.298 580.119 174.138 577.507 177.887 577.734 182.544 580.574 186.747 583.186 196.061 586.935 201.968 588.411 206.853 589.661 210.147 592.614 210.147 595.909 210.147 602.838 201.287 603.974 190.268 598.521Z" fill="#E02D27" transform="matrix(1 0 0 -1.00025 2298.55 1975.77)"/><path d="M268.875 601.361C268.42 600.907 268.079 598.635 268.079 596.249 268.079 591.478 270.124 589.775 278.303 587.389 281.143 586.594 286.822 584.208 291.025 582.05 300.226 577.393 304.77 577.052 307.383 581.028 311.245 586.821 305.906 591.592 288.753 597.612 278.416 601.361 270.351 602.838 268.875 601.361Z" fill="#E02D27" transform="matrix(1 0 0 -1.00025 2298.55 1975.77)"/><path d="M138.47 588.752C134.267 588.071 126.315 581.028 124.384 576.257 121.431 569.328 123.021 558.196 127.565 553.879 132.904 548.768 136.993 546.95 143.809 546.95 149.829 546.95 151.647 547.404 155.85 550.358 161.529 554.334 165.846 561.944 165.846 568.078 165.846 573.758 160.848 582.277 155.509 585.799 151.192 588.639 144.49 589.888 138.47 588.752Z" fill="#E02D27" transform="matrix(1 0 0 -1.00025 2298.55 1975.77)"/><path d="M324.194 587.503C321.695 586.253 317.947 583.3 316.016 580.687 312.835 576.711 312.381 575.348 312.381 569.101 312.381 561.149 313.289 558.877 318.969 552.857 325.785 545.814 334.758 544.792 344.868 550.017 352.592 553.993 356.682 564.898 353.956 573.872 351.911 580.801 349.866 583.527 344.641 586.253 338.053 589.547 329.874 590.115 324.194 587.503Z" fill="#E02D27" transform="matrix(1 0 0 -1.00025 2298.55 1975.77)"/><path d="M843.996 541.157C842.632 537.635 842.519 401.097 843.768 398.938 844.564 397.916 854.56 397.575 890.114 397.802L935.438 398.143 935.438 411.206 935.438 424.27 904.768 424.838 874.098 425.406 873.757 483.792C873.53 528.889 873.189 542.52 872.053 543.201 871.371 543.656 864.897 544.11 857.854 544.11 845.132 544.11 845.018 544.11 843.996 541.157Z" fill="#E02D27" transform="matrix(1 0 0 -1.00025 2298.55 1975.77)"/><path d="M347.14 540.134C345.55 538.658 344.187 536.954 344.187 536.499 344.187 535.932 346.231 531.501 348.73 526.503 351.229 521.505 353.274 516.734 353.274 515.712 353.274 514.803 354.069 512.986 354.978 511.85 355.887 510.6 356.682 508.556 356.682 507.193 356.682 504.239 360.658 499.809 363.27 499.809 366.337 499.809 370.313 503.103 370.313 505.489 370.313 506.738 369.631 509.351 368.723 511.395 367.928 513.44 366.224 517.87 365.201 521.278 362.702 528.775 357.023 539.68 354.524 541.498 351.911 543.542 350.548 543.315 347.14 540.134Z" fill="#E02D27" transform="matrix(1 0 0 -1.00025 2298.55 1975.77)"/><path d="M121.999 538.771C117.569 534 107.913 511.509 107.913 505.829 107.913 501.172 112.571 498.559 117.455 500.491 118.477 500.831 120.068 504.125 121.09 507.647 122.112 511.168 124.952 517.984 127.451 522.982 132.449 532.978 133.245 537.976 130.064 540.248 126.997 542.52 125.179 542.179 121.999 538.771Z" fill="#E02D27" transform="matrix(1 0 0 -1.00025 2298.55 1975.77)"/><path d="M206.171 515.144 176.637 500.15 176.751 495.947C176.864 491.517 179.818 487.314 182.771 487.314 184.589 487.314 213.555 501.399 228.208 509.464 232.184 511.623 236.841 513.44 238.545 513.44 241.839 513.44 286.709 491.176 291.593 487.087 293.979 485.155 296.932 487.087 299.885 492.312 302.271 496.742 302.384 497.537 300.908 499.355 299.999 500.377 297.841 502.081 295.91 502.876 294.092 503.785 291.252 505.148 289.662 505.829 288.185 506.625 283.301 509.01 278.871 511.395 248.314 527.185 241.499 530.479 238.772 530.365 237.068 530.252 222.415 523.436 206.171 515.144Z" fill="#E02D27" transform="matrix(1 0 0 -1.00025 2298.55 1975.77)"/><path d="M676.219 504.921C658.839 500.945 647.934 491.289 641.346 474.251 638.165 465.845 638.052 438.242 641.232 429.381 642.368 425.974 644.072 422.339 644.867 421.316 645.662 420.408 646.344 419.158 646.344 418.704 646.344 416.659 654.068 408.026 658.158 405.3 668.381 398.825 676.56 396.553 692.917 395.985 704.731 395.531 721.997 400.529 728.699 406.436 736.764 413.365 743.352 427.337 740.626 431.653 739.831 432.903 736.764 433.471 728.131 433.698 718.362 434.039 716.317 433.811 714.386 432.108 713.25 431.085 712.228 429.268 712.228 428.245 712.228 427.223 710.41 424.61 708.138 422.452 704.731 419.158 703.254 418.476 697.12 418.022 680.876 416.659 673.493 421.203 668.949 435.288 666.904 441.422 666.677 443.353 667.813 444.489 668.835 445.512 678.718 445.966 705.185 446.42L741.194 446.988 741.194 457.212C741.194 473.115 737.9 481.861 728.131 491.857 718.475 501.74 709.842 505.261 693.485 506.057 687.01 506.397 680.649 505.943 676.219 504.921ZM701.436 484.02C707.003 481.521 709.161 479.135 711.66 472.774 714.84 464.822 714.272 464.595 690.077 464.595 665.2 464.595 664.859 464.709 669.858 473.91 674.515 482.656 680.195 486.064 689.509 486.064 694.28 486.178 698.483 485.383 701.436 484.02Z" fill="#E02D27" transform="matrix(1 0 0 -1.00025 2298.55 1975.77)"/><path d="M991.78 505.375C974.627 502.535 961.564 491.289 955.089 473.91 951.682 464.822 951.341 438.128 954.635 430.517 961.564 413.706 967.358 406.89 979.398 401.21 985.76 398.257 989.167 397.462 1004.16 395.871 1008.36 395.417 1026.88 398.257 1031.42 400.074 1036.88 402.119 1042.9 406.436 1047.21 411.434 1051.53 416.318 1055.73 427.45 1054.71 431.312 1054.14 433.811 1053.69 433.925 1042.22 433.925 1031.76 433.925 1029.95 433.584 1028.02 431.653 1026.77 430.404 1025.74 428.7 1025.74 427.905 1025.74 427.109 1023.81 424.497 1021.31 422.111 1017 417.908 1016.88 417.908 1007.34 417.795 992.689 417.681 987.236 421.657 982.579 435.743 980.08 443.126 980.08 443.467 982.125 444.944 983.715 446.079 991.78 446.42 1019.72 446.42L1055.28 446.42 1055.28 455.735C1055.28 481.18 1042.67 498.446 1019.84 504.466 1011.2 506.738 1001.89 507.079 991.78 505.375ZM1015.41 483.906C1020.63 481.293 1023.93 477.431 1025.74 471.865 1028.13 464.822 1027.22 464.482 1003.14 464.822L982.011 465.163 981.67 468.003C981.216 471.979 987.577 481.18 992.689 483.906 998.368 486.859 1009.61 486.973 1015.41 483.906Z" fill="#E02D27" transform="matrix(1 0 0 -1.00025 2298.55 1975.77)"/><path d="M1116.62 505.829C1094.81 502.535 1081.86 490.949 1082.77 475.614L1083.11 469.707 1094.58 469.366C1107.19 469.025 1107.76 469.252 1109.46 475.841 1110.03 478.226 1112.19 481.066 1114.69 483.111 1118.44 486.178 1119.69 486.519 1127.07 486.632 1140.59 486.746 1145.13 482.316 1145.47 468.571L1145.58 464.027 1139.34 463.232C1135.93 462.778 1127.75 461.869 1121.16 461.301 1099.81 459.256 1092.2 456.644 1083.79 448.806 1078.22 443.58 1075.73 437.106 1075.73 427.337 1075.73 411.093 1085.61 399.734 1102.31 396.894 1115.71 394.622 1128.77 397.689 1140.02 405.754 1142.74 407.685 1145.36 408.935 1145.81 408.48 1146.27 408.139 1146.83 405.64 1147.18 402.914L1147.86 398.143 1160.92 398.143 1173.98 398.143 1174.32 435.061C1174.44 458.575 1174.21 473.796 1173.42 477.09 1172.73 479.93 1171.82 483.565 1171.37 485.269 1170.12 490.04 1162.74 498.105 1157.17 500.831 1147.63 505.489 1128.89 507.76 1116.62 505.829ZM1144.79 437.787C1145.13 430.404 1144.79 429.381 1142.06 426.087 1138.31 421.657 1128.09 416.659 1121.16 415.977 1113.67 415.296 1107.53 418.363 1105.37 424.042 1104.01 427.791 1104.01 429.041 1105.37 433.698 1106.74 438.014 1107.99 439.491 1111.85 441.649 1117.75 444.944 1124.91 446.193 1135.93 446.079L1144.45 445.852 1144.79 437.787Z" fill="#E02D27" transform="matrix(1 0 0 -1.00025 2298.55 1975.77)"/><path d="M1249.18 504.012C1243.5 501.967 1239.98 499.923 1236 495.947L1230.55 490.494 1229.53 497.196 1228.51 503.785 1215.44 503.785 1202.38 503.785 1202.38 450.964 1202.38 398.143 1216.01 398.143 1229.64 398.143 1230.21 433.357C1230.67 458.12 1231.23 469.252 1232.14 470.956 1235.1 476.068 1251.68 482.77 1261.22 482.77L1264.4 482.77 1264.06 494.47 1263.72 506.057 1260.31 506.284C1258.5 506.511 1253.38 505.375 1249.18 504.012Z" fill="#E02D27" transform="matrix(1 0 0 -1.00025 2298.55 1975.77)"/><path d="M1335.85 504.466C1327.79 501.854 1324.83 500.263 1319.61 495.72 1313.82 490.381 1312 490.608 1312 496.742 1312 499.468 1311.43 502.194 1310.64 502.99 1308.59 505.034 1286.55 504.807 1284.85 502.762 1283.94 501.74 1283.71 486.859 1283.83 449.714L1284.17 398.143 1298.37 398.143 1312.57 398.143 1313.13 433.925C1313.48 453.577 1314.16 470.388 1314.72 471.184 1315.18 472.092 1318.7 475.046 1322.45 477.772 1329.04 482.543 1329.61 482.77 1337.56 482.77 1344.49 482.77 1346.19 482.316 1348.58 480.271 1354.26 474.932 1354.48 473.342 1355.16 434.493L1355.73 398.143 1369.36 398.143 1382.99 398.143 1382.99 439.037C1382.99 486.859 1382.77 487.995 1372.66 497.537 1363.34 506.397 1349.71 508.896 1335.85 504.466Z" fill="#E02D27" transform="matrix(1 0 0 -1.00025 2298.55 1975.77)"/><path d="M452.895 503.558C452.441 503.217 452.1 498.332 452.1 492.766L452.1 482.77 459.938 482.77C465.05 482.77 468.117 482.202 469.025 481.293 469.82 480.271 470.388 466.753 470.502 438.923L470.843 398.143 483.792 397.802C492.425 397.575 497.196 397.916 498.219 398.825 499.582 399.961 499.809 407.117 499.809 440.513 499.695 462.664 500.15 481.293 500.718 481.861 501.286 482.429 507.306 482.656 514.122 482.543L526.503 482.202 527.071 450.964C527.639 421.089 527.753 419.499 530.365 414.387 535.591 403.823 544.678 399.052 562.399 397.916 568.873 397.462 571.259 397.689 571.94 398.825 573.076 400.529 573.076 417.34 571.94 419.044 571.6 419.726 569.669 420.294 567.851 420.294 563.989 420.294 560.127 421.998 558.082 424.724 557.06 426.087 556.719 434.266 556.605 454.031L556.605 481.634 559.218 482.202C560.581 482.543 565.011 482.884 569.101 482.997L576.484 483.338 576.825 492.198C577.052 497.878 576.711 501.74 575.803 502.762 574.667 504.125 564.557 504.353 514.008 504.353 480.839 504.353 453.236 504.012 452.895 503.558Z" fill="#E02D27" transform="matrix(1 0 0 -1.00025 2298.55 1975.77)"/><path d="M222.074 492.539C214.577 488.677 205.944 484.02 202.877 482.429 199.81 480.725 196.743 479.362 195.948 479.362 195.266 479.362 193.449 478.113 192.086 476.636L189.473 473.91 211.51 462.891C223.551 456.871 233.888 451.418 234.569 450.85 235.137 450.282 236.728 449.828 238.204 449.828 241.612 449.828 287.39 472.66 287.39 474.364 287.39 475.386 261.832 489.586 253.312 493.448 252.404 493.789 249.564 495.379 247.065 496.969 244.566 498.446 241.044 499.695 239.113 499.695 237.068 499.695 230.139 496.856 222.074 492.539Z" fill="#E02D27" transform="matrix(1 0 0 -1.00025 2298.55 1975.77)"/><path d="M93.3734 489.586C87.8074 485.496 84.0588 478.794 84.0588 472.774 84.0588 467.435 87.4666 459.143 91.1015 455.848 96.4404 451.078 104.392 448.238 108.254 449.828 109.617 450.396 112.003 451.078 113.593 451.418 119.954 452.781 127.224 463.118 127.224 470.843 127.224 475.046 124.498 482.316 121.772 485.496 114.388 493.789 101.666 495.606 93.3734 489.586Z" fill="#E02D27" transform="matrix(1 0 0 -1.00025 2298.55 1975.77)"/><path d="M362.021 490.608C357.023 487.995 352.82 481.975 350.889 474.705 349.639 470.048 349.753 469.025 352.365 463.232 356.341 454.485 363.838 449.828 373.721 449.828 379.173 449.828 388.374 455.848 390.987 461.301 394.622 468.684 394.735 473.115 391.328 480.044 385.534 491.744 372.926 496.401 362.021 490.608Z" fill="#E02D27" transform="matrix(1 0 0 -1.00025 2298.55 1975.77)"/><path d="M760.846 462.21C759.142 461.301 758.801 459.37 758.801 451.191 758.801 444.944 759.255 440.741 760.164 439.832 762.095 437.901 816.847 437.901 818.778 439.832 819.687 440.741 820.141 444.944 820.141 451.191 820.141 459.824 819.914 461.301 817.983 462.323 815.029 463.8 763.458 463.8 760.846 462.21Z" fill="#E02D27" transform="matrix(1 0 0 -1.00025 2298.55 1975.77)"/><path d="M196.516 442.558C196.516 435.402 196.857 428.7 197.197 427.791 197.538 426.769 202.082 423.929 207.194 421.316 217.758 416.091 218.894 415.409 222.074 413.706 228.663 409.843 237.523 405.527 238.545 405.527 239.34 405.527 244.793 408.026 250.813 411.093 273.418 422.339 280.461 426.655 281.143 429.836 281.483 431.085 281.711 437.333 281.483 443.58 281.143 454.031 280.915 454.94 278.871 455.281 277.621 455.394 274.213 454.372 271.487 452.781 268.647 451.305 260.128 446.875 252.517 443.012L238.659 436.083 228.095 441.309C222.301 444.148 216.735 446.988 215.827 447.556 209.238 451.191 199.924 455.508 198.333 455.508 196.743 455.508 196.516 453.69 196.516 442.558Z" fill="#E02D27" transform="matrix(1 0 0 -1.00025 2298.55 1975.77)"/><path d="M359.749 440.968C358.727 439.832 356.682 435.175 355.205 430.744 353.728 426.201 351.911 421.884 351.229 421.203 350.434 420.408 349.866 419.272 349.866 418.476 349.866 417.795 348.844 414.728 347.481 411.774 344.641 405.3 345.323 401.324 349.525 400.302 351.116 399.847 353.274 400.074 354.296 400.642 358.045 403.028 370.313 431.199 370.313 437.446 370.313 439.945 369.631 441.081 367.36 441.877 363.27 443.467 361.794 443.353 359.749 440.968Z" fill="#E02D27" transform="matrix(1 0 0 -1.00025 2298.55 1975.77)"/><path d="M108.708 441.081C107.573 440.059 107.686 432.335 108.822 431.085 109.276 430.404 110.867 426.882 112.343 423.134 116.774 411.547 121.772 402.119 123.93 400.87 127.111 399.166 131.654 400.87 132.449 403.937 132.904 405.527 131.995 408.821 130.291 412.57 124.498 424.724 121.885 431.199 121.204 434.947 120.749 437.106 119.841 439.491 119.159 440.4 117.796 441.877 110.072 442.445 108.708 441.081Z" fill="#E02D27" transform="matrix(1 0 0 -1.00025 2298.55 1975.77)"/><path d="M136.88 394.622C124.498 390.078 119.159 376.561 125.293 364.633 129.155 356.909 135.176 353.274 144.149 353.16 150.397 353.047 151.987 353.501 156.077 356.341 162.324 360.771 165.846 367.132 165.846 374.289 165.846 383.49 158.349 392.918 149.375 395.19 143.241 396.78 142.559 396.667 136.88 394.622Z" fill="#E02D27" transform="matrix(1 0 0 -1.00025 2298.55 1975.77)"/><path d="M327.943 395.19C318.287 392.918 312.381 385.08 312.381 374.289 312.381 367.246 315.22 361.566 321.468 356.341 324.535 353.728 326.125 353.274 332.373 353.274 341.006 353.274 344.527 354.864 350.093 361.112 360.203 372.698 354.296 390.987 339.189 395.076 333.282 396.553 333.85 396.553 327.943 395.19Z" fill="#E02D27" transform="matrix(1 0 0 -1.00025 2298.55 1975.77)"/><path d="M171.071 361.68C165.505 356.114 171.98 350.093 189.132 344.868 192.881 343.732 197.538 342.142 199.356 341.46 206.058 338.734 211.624 342.483 209.579 348.276 208.67 350.889 206.966 352.025 201.06 354.069 193.903 356.568 189.019 358.613 182.657 361.907 178.682 364.065 173.229 363.952 171.071 361.68Z" fill="#E02D27" transform="matrix(1 0 0 -1.00025 2298.55 1975.77)"/><path d="M291.366 360.09C287.617 358.386 282.278 356 279.439 354.978 269.442 351.229 268.647 350.661 268.307 346.118 268.079 343.051 268.42 341.688 269.783 341.233 272.623 340.097 282.846 342.71 293.297 347.254 308.632 353.842 311.813 357.136 306.928 361.566 303.975 364.293 299.204 363.838 291.366 360.09Z" fill="#E02D27" transform="matrix(1 0 0 -1.00025 2298.55 1975.77)"/><path d="M229.458 357.591C226.732 356.114 222.869 353.047 221.052 350.661 217.985 346.799 217.53 345.323 217.53 339.302 217.53 333.282 218.098 331.464 221.279 326.921 233.32 309.541 258.083 316.243 260.809 337.712 261.605 344.187 257.629 351.457 250.472 356.455 243.77 360.998 236.955 361.339 229.458 357.591Z" fill="#E02D27" transform="matrix(1 0 0 -1.00025 2298.55 1975.77)"/></g></g></g></g></svg>