<svg width="173" height="43" xmlns="http://www.w3.org/2000/svg" xmlns:xlink="http://www.w3.org/1999/xlink" xml:space="preserve" overflow="hidden"><g transform="translate(-575 -395)"><path d="M29.8324 81.31C29.1514 80.9251 28.7961 80.5254 28.5296 79.8295 28.1446 78.8524 28.2039 78.0233 28.7072 77.3422 29.2994 76.5132 29.5807 76.3059 30.4394 76.0246 31.1649 75.7877 31.2093 75.8025 31.994 76.0986 33.208 76.5724 33.7706 77.2238 33.9927 78.4082 34.0963 79.0152 33.741 80.1256 33.2524 80.6586 32.4678 81.5321 30.7948 81.8578 29.8324 81.31Z" fill="#E02D27" transform="matrix(1.00398 0 0 -1 565.4 477.712)"/><path d="M24.7987 78.0085C22.1337 76.6908 21.6452 76.217 22.3262 75.61 22.6963 75.2695 23.1849 75.2991 23.7919 75.6693 24.3397 76.0098 25.5537 76.4984 26.3236 76.6908 26.9602 76.8537 27.3896 77.2386 27.3896 77.668 27.3896 78.5711 26.2348 78.7191 24.7987 78.0085Z" fill="#E02D27" transform="matrix(1.00398 0 0 -1 565.4 477.712)"/><path d="M35.0439 78.3786C34.9846 78.3194 34.9402 78.0233 34.9402 77.7124 34.9402 77.0906 35.2067 76.8685 36.2727 76.5576 36.6428 76.4539 37.3831 76.143 37.9309 75.8617 39.1301 75.2547 39.7223 75.2103 40.0628 75.7285 40.5662 76.4835 39.8703 77.1054 37.6348 77.89 36.2875 78.3786 35.2363 78.5711 35.0439 78.3786Z" fill="#E02D27" transform="matrix(1.00398 0 0 -1 565.4 477.712)"/><path d="M18.0475 76.7352C17.4997 76.6464 16.4634 75.7285 16.2117 75.1067 15.8267 74.2035 16.034 72.7526 16.6262 72.19 17.3221 71.5238 17.855 71.2869 18.7434 71.2869 19.528 71.2869 19.7649 71.3461 20.3127 71.7311 21.053 72.2493 21.6156 73.2412 21.6156 74.0407 21.6156 74.781 20.9641 75.8913 20.2683 76.3503 19.7057 76.7204 18.8322 76.8833 18.0475 76.7352Z" fill="#E02D27" transform="matrix(1.00398 0 0 -1 565.4 477.712)"/><path d="M42.254 76.5724C41.9283 76.4095 41.4397 76.0246 41.188 75.6841 40.7735 75.1659 40.7142 74.9882 40.7142 74.1739 40.7142 73.1376 40.8327 72.8415 41.5729 72.0568 42.4612 71.1389 43.6309 71.0056 44.9485 71.6867 45.9553 72.2048 46.4883 73.6261 46.1329 74.7958 45.8664 75.6989 45.5999 76.0542 44.9189 76.4095 44.0602 76.8389 42.9942 76.9129 42.254 76.5724Z" fill="#E02D27" transform="matrix(1.00398 0 0 -1 565.4 477.712)"/><path d="M110.002 70.5319C109.825 70.0729 109.81 52.2771 109.973 51.9958 110.076 51.8625 111.379 51.8181 116.013 51.8477L121.921 51.8921 121.921 53.5947 121.921 55.2973 117.923 55.3714 113.926 55.4454 113.881 63.0552C113.852 68.9329 113.807 70.7095 113.659 70.7984 113.571 70.8576 112.727 70.9168 111.809 70.9168 110.151 70.9168 110.136 70.9168 110.002 70.5319Z" fill="#E02D27" transform="matrix(1.00398 0 0 -1 565.4 477.712)"/><path d="M45.2446 70.3986C45.0373 70.2062 44.8597 69.9841 44.8597 69.9249 44.8597 69.8508 45.1262 69.2734 45.4519 68.622 45.7776 67.9706 46.0441 67.3488 46.0441 67.2155 46.0441 67.0971 46.1477 66.8602 46.2662 66.7121 46.3846 66.5493 46.4883 66.2828 46.4883 66.1051 46.4883 65.7202 47.0064 65.1428 47.347 65.1428 47.7467 65.1428 48.2649 65.5721 48.2649 65.883 48.2649 66.0459 48.176 66.3864 48.0576 66.6529 47.954 66.9194 47.7319 67.4968 47.5986 67.941 47.2729 68.9181 46.5327 70.3394 46.207 70.5763 45.8664 70.8428 45.6888 70.8132 45.2446 70.3986Z" fill="#E02D27" transform="matrix(1.00398 0 0 -1 565.4 477.712)"/><path d="M15.9008 70.221C15.3234 69.5991 14.0649 66.6677 14.0649 65.9275 14.0649 65.3204 14.6719 64.9799 15.3086 65.2316 15.4418 65.276 15.6491 65.7054 15.7823 66.1643 15.9156 66.6233 16.2857 67.5116 16.6114 68.163 17.2628 69.4659 17.3665 70.1173 16.9519 70.4134 16.5522 70.7095 16.3153 70.6651 15.9008 70.221Z" fill="#E02D27" transform="matrix(1.00398 0 0 -1 565.4 477.712)"/><path d="M26.8714 67.1415 23.0221 65.1872 23.0369 64.6394C23.0517 64.062 23.4366 63.5142 23.8215 63.5142 24.0584 63.5142 27.8337 65.3501 29.7436 66.4012 30.2618 66.6825 30.8688 66.9194 31.0909 66.9194 31.5202 66.9194 37.3683 64.0176 38.0049 63.4846 38.3158 63.2329 38.7007 63.4846 39.0857 64.1656 39.3966 64.743 39.4114 64.8467 39.2189 65.0836 39.1005 65.2168 38.8192 65.4389 38.5675 65.5425 38.3306 65.661 37.9605 65.8386 37.7532 65.9275 37.5607 66.0311 36.9241 66.342 36.3467 66.6529 32.3641 68.7108 31.4758 69.1402 31.1205 69.1254 30.8984 69.1106 28.9885 68.2223 26.8714 67.1415Z" fill="#E02D27" transform="matrix(1.00398 0 0 -1 565.4 477.712)"/><path d="M88.1352 65.809C85.87 65.2908 84.4487 64.0324 83.59 61.8116 83.1755 60.716 83.1607 57.1184 83.5752 55.9636 83.7233 55.5194 83.9454 55.0457 84.049 54.9124 84.1526 54.794 84.2415 54.6311 84.2415 54.5719 84.2415 54.3054 85.2482 53.1802 85.7812 52.8249 87.1137 51.981 88.1796 51.6849 90.3116 51.6108 91.8513 51.5516 94.1017 52.2031 94.9752 52.9729 96.0264 53.876 96.8851 55.6971 96.5298 56.2597 96.4261 56.4225 96.0264 56.4966 94.9012 56.5262 93.6279 56.5706 93.3615 56.541 93.1098 56.3189 92.9617 56.1856 92.8285 55.9488 92.8285 55.8155 92.8285 55.6823 92.5916 55.3418 92.2955 55.0605 91.8513 54.6311 91.6589 54.5423 90.8594 54.4831 88.7422 54.3054 87.7799 54.8976 87.1877 56.7334 86.9212 57.5329 86.8916 57.7846 87.0396 57.9327 87.1729 58.0659 88.4609 58.1251 91.9105 58.1843L96.6038 58.2584 96.6038 59.5908C96.6038 61.6636 96.1744 62.8036 94.9012 64.1064 93.6427 65.3945 92.5176 65.8534 90.3856 65.9571 89.5417 66.0015 88.7126 65.9423 88.1352 65.809ZM91.422 63.0849C92.1474 62.7591 92.4287 62.4482 92.7544 61.6191 93.169 60.5828 93.095 60.5532 89.9415 60.5532 86.6991 60.5532 86.6547 60.568 87.3061 61.7672 87.9131 62.9072 88.6534 63.3514 89.8674 63.3514 90.4892 63.3662 91.037 63.2625 91.422 63.0849Z" fill="#E02D27" transform="matrix(1.00398 0 0 -1 565.4 477.712)"/><path d="M129.264 65.8682C127.028 65.4981 125.326 64.0324 124.482 61.7672 124.038 60.5828 123.993 57.1036 124.423 56.1116 125.326 53.9205 126.081 53.0321 127.65 52.2919 128.479 51.907 128.923 51.8033 130.878 51.596 131.426 51.5368 133.839 51.907 134.431 52.1438 135.142 52.4103 135.926 52.9729 136.489 53.6244 137.052 54.261 137.599 55.7119 137.466 56.2153 137.392 56.541 137.333 56.5558 135.837 56.5558 134.475 56.5558 134.239 56.5114 133.987 56.2597 133.824 56.0968 133.691 55.8747 133.691 55.7711 133.691 55.6675 133.439 55.3269 133.113 55.016 132.551 54.4682 132.536 54.4682 131.292 54.4534 129.382 54.4386 128.672 54.9568 128.065 56.7927 127.739 57.755 127.739 57.7994 128.006 57.9919 128.213 58.1399 129.264 58.1843 132.906 58.1843L137.54 58.1843 137.54 59.3984C137.54 62.7147 135.897 64.9651 132.921 65.7498 131.796 66.0459 130.582 66.0903 129.264 65.8682ZM132.343 63.0701C133.025 62.7295 133.454 62.2262 133.691 61.5007 134.002 60.5828 133.883 60.5384 130.745 60.5828L127.991 60.6272 127.946 60.9973C127.887 61.5155 128.716 62.7147 129.382 63.0701 130.123 63.455 131.588 63.4698 132.343 63.0701Z" fill="#E02D27" transform="matrix(1.00398 0 0 -1 565.4 477.712)"/><path d="M145.535 65.9275C142.692 65.4981 141.005 63.988 141.123 61.9893L141.167 61.2194 142.663 61.175C144.306 61.1306 144.38 61.1602 144.602 62.0189 144.676 62.3298 144.957 62.6999 145.283 62.9664 145.772 63.3662 145.935 63.4106 146.897 63.4254 148.659 63.4402 149.251 62.8628 149.295 61.0714L149.31 60.4791 148.496 60.3755C148.052 60.3163 146.986 60.1978 146.127 60.1238 143.344 59.8573 142.352 59.5168 141.256 58.4953 140.531 57.8142 140.205 56.9703 140.205 55.6971 140.205 53.5799 141.493 52.0994 143.669 51.7293 145.416 51.4332 147.119 51.8329 148.585 52.8841 148.94 53.1358 149.281 53.2986 149.34 53.2394 149.399 53.195 149.473 52.8693 149.517 52.514L149.606 51.8921 151.309 51.8921 153.012 51.8921 153.056 56.7038C153.071 59.7685 153.041 61.7524 152.937 62.1817 152.849 62.5519 152.73 63.0256 152.671 63.2477 152.508 63.8695 151.546 64.9207 150.82 65.276 149.577 65.883 147.134 66.1791 145.535 65.9275ZM149.207 57.0592C149.251 56.0968 149.207 55.9636 148.851 55.5342 148.363 54.9568 147.03 54.3054 146.127 54.2166 145.15 54.1277 144.35 54.5275 144.069 55.2677 143.892 55.7563 143.892 55.9192 144.069 56.5262 144.247 57.0888 144.41 57.2812 144.913 57.5625 145.683 57.9919 146.616 58.1547 148.052 58.1399L149.162 58.1103 149.207 57.0592Z" fill="#E02D27" transform="matrix(1.00398 0 0 -1 565.4 477.712)"/><path d="M162.813 65.6906C162.072 65.4241 161.613 65.1576 161.095 64.6394L160.384 63.9288 160.251 64.8023 160.118 65.661 158.415 65.661 156.713 65.661 156.713 58.7766 156.713 51.8921 158.489 51.8921 160.266 51.8921 160.34 56.4818C160.399 59.7093 160.473 61.1602 160.592 61.3823 160.977 62.0485 163.138 62.922 164.382 62.922L164.796 62.922 164.752 64.4469 164.708 65.9571 164.263 65.9867C164.027 66.0163 163.36 65.8682 162.813 65.6906Z" fill="#E02D27" transform="matrix(1.00398 0 0 -1 565.4 477.712)"/><path d="M174.109 65.7498C173.058 65.4093 172.673 65.202 171.992 64.6098 171.237 63.914 171 63.9436 171 64.743 171 65.0984 170.926 65.4537 170.822 65.5573 170.556 65.8238 167.683 65.7942 167.461 65.5277 167.343 65.3945 167.313 63.455 167.328 58.6137L167.373 51.8921 169.223 51.8921 171.074 51.8921 171.148 56.5558C171.192 59.1171 171.281 61.3082 171.355 61.4119 171.414 61.5303 171.873 61.9153 172.362 62.2706 173.221 62.8924 173.295 62.922 174.331 62.922 175.234 62.922 175.456 62.8628 175.767 62.5963 176.507 61.9004 176.537 61.6932 176.626 56.6298L176.7 51.8921 178.476 51.8921 180.253 51.8921 180.253 57.222C180.253 63.455 180.223 63.603 178.906 64.8467 177.692 66.0015 175.915 66.3272 174.109 65.7498Z" fill="#E02D27" transform="matrix(1.00398 0 0 -1 565.4 477.712)"/><path d="M59.0282 65.6313C58.969 65.5869 58.9246 64.9503 58.9246 64.2249L58.9246 62.922 59.9462 62.922C60.6124 62.922 61.0121 62.848 61.1306 62.7295 61.2342 62.5963 61.3082 60.8345 61.323 57.2072L61.3675 51.8921 63.0552 51.8477C64.1804 51.8181 64.8023 51.8625 64.9355 51.981 65.1132 52.129 65.1428 53.0618 65.1428 57.4145 65.128 60.3015 65.1872 62.7295 65.2612 62.8036 65.3353 62.8776 66.1199 62.9072 67.0082 62.8924L68.622 62.848 68.696 58.7766C68.7701 54.8828 68.7849 54.6755 69.1254 54.0093 69.8064 52.6324 70.9908 52.0106 73.3004 51.8625 74.1443 51.8033 74.4552 51.8329 74.5441 51.981 74.6921 52.2031 74.6921 54.3942 74.5441 54.6163 74.4996 54.7051 74.248 54.7792 74.0111 54.7792 73.5077 54.7792 73.0043 55.0012 72.7378 55.3566 72.6046 55.5342 72.5602 56.6002 72.5454 59.1763L72.5454 62.774 72.8859 62.848C73.0636 62.8924 73.641 62.9368 74.1739 62.9516L75.1363 62.996 75.1807 64.1508C75.2103 64.8911 75.1659 65.3945 75.0474 65.5277 74.8994 65.7054 73.5817 65.735 66.9934 65.735 62.6703 65.735 59.0727 65.6906 59.0282 65.6313Z" fill="#E02D27" transform="matrix(1.00398 0 0 -1 565.4 477.712)"/><path d="M28.9441 64.1953C27.967 63.6919 26.8418 63.0849 26.442 62.8776 26.0423 62.6555 25.6426 62.4778 25.5389 62.4778 25.4501 62.4778 25.2132 62.315 25.0356 62.1225L24.695 61.7672 27.5672 60.3311C29.1366 59.5464 30.4839 58.8358 30.5727 58.7617 30.6467 58.6877 30.854 58.6285 31.0465 58.6285 31.4906 58.6285 37.4571 61.6043 37.4571 61.8264 37.4571 61.9597 34.1259 63.8103 33.0155 64.3137 32.8971 64.3581 32.527 64.5654 32.2013 64.7727 31.8755 64.9651 31.4166 65.128 31.1649 65.128 30.8984 65.128 29.9953 64.7578 28.9441 64.1953Z" fill="#E02D27" transform="matrix(1.00398 0 0 -1 565.4 477.712)"/><path d="M12.1699 63.8103C11.4444 63.2773 10.9558 62.4038 10.9558 61.6191 10.9558 60.9233 11.4 59.8425 11.8738 59.4132 12.5696 58.7914 13.606 58.4212 14.1093 58.6285 14.287 58.7025 14.5979 58.7914 14.8052 58.8358 15.6343 59.0134 16.5818 60.3607 16.5818 61.3675 16.5818 61.9153 16.2265 62.8628 15.8712 63.2773 14.9088 64.3581 13.2506 64.595 12.1699 63.8103Z" fill="#E02D27" transform="matrix(1.00398 0 0 -1 565.4 477.712)"/><path d="M47.1841 63.9436C46.5327 63.603 45.9849 62.8184 45.7332 61.8708 45.5703 61.2638 45.5851 61.1306 45.9257 60.3755 46.4438 59.2355 47.421 58.6285 48.709 58.6285 49.4197 58.6285 50.6189 59.4132 50.9594 60.1238 51.4332 61.0862 51.448 61.6636 51.0038 62.5667 50.2488 64.0916 48.6054 64.6986 47.1841 63.9436Z" fill="#E02D27" transform="matrix(1.00398 0 0 -1 565.4 477.712)"/><path d="M99.1651 60.2423C98.943 60.1238 98.8986 59.8721 98.8986 58.8062 98.8986 57.9919 98.9578 57.4441 99.0762 57.3256 99.3279 57.074 106.464 57.074 106.716 57.3256 106.834 57.4441 106.893 57.9919 106.893 58.8062 106.893 59.9314 106.864 60.1238 106.612 60.2571 106.227 60.4495 99.5056 60.4495 99.1651 60.2423Z" fill="#E02D27" transform="matrix(1.00398 0 0 -1 565.4 477.712)"/><path d="M25.613 57.681C25.613 56.7482 25.6574 55.8747 25.7018 55.7563 25.7462 55.6231 26.3384 55.2529 27.0046 54.9124 28.3815 54.2314 28.5296 54.1425 28.9441 53.9205 29.8028 53.4171 30.9576 52.8545 31.0909 52.8545 31.1945 52.8545 31.9052 53.1802 32.6898 53.5799 35.6361 55.0457 36.554 55.6082 36.6428 56.0228 36.6872 56.1856 36.7168 56.9999 36.6872 57.8142 36.6428 59.1763 36.6132 59.2947 36.3467 59.3391 36.1839 59.354 35.7397 59.2207 35.3844 59.0134 35.0142 58.821 33.9039 58.2436 32.9119 57.7402L31.1057 56.8371 29.7288 57.5181C28.9737 57.8882 28.2483 58.2584 28.1298 58.3324 27.2711 58.8062 26.0571 59.3688 25.8498 59.3688 25.6426 59.3688 25.613 59.1319 25.613 57.681Z" fill="#E02D27" transform="matrix(1.00398 0 0 -1 565.4 477.712)"/><path d="M46.888 57.4737C46.7547 57.3256 46.4883 56.7186 46.2958 56.1412 46.1033 55.549 45.8664 54.9864 45.7776 54.8976 45.674 54.794 45.5999 54.6459 45.5999 54.5423 45.5999 54.4534 45.4667 54.0537 45.289 53.6688 44.9189 52.8249 45.0077 52.3067 45.5555 52.1734 45.7628 52.1142 46.0441 52.1438 46.1773 52.2179 46.6659 52.5288 48.2649 56.2005 48.2649 57.0147 48.2649 57.3405 48.176 57.4885 47.8799 57.5921 47.347 57.7994 47.1545 57.7846 46.888 57.4737Z" fill="#E02D27" transform="matrix(1.00398 0 0 -1 565.4 477.712)"/><path d="M14.1686 57.4885C14.0205 57.3553 14.0353 56.3485 14.1834 56.1856 14.2426 56.0968 14.4499 55.6379 14.6423 55.1493 15.2197 53.6392 15.8712 52.4103 16.1524 52.2475 16.567 52.0254 17.1592 52.2475 17.2628 52.6472 17.3221 52.8545 17.2036 53.2838 16.9815 53.7724 16.2265 55.3566 15.886 56.2005 15.7971 56.689 15.7379 56.9703 15.6195 57.2812 15.5306 57.3997 15.353 57.5921 14.3462 57.6662 14.1686 57.4885Z" fill="#E02D27" transform="matrix(1.00398 0 0 -1 565.4 477.712)"/><path d="M17.8402 51.4332C16.2265 50.841 15.5306 49.0792 16.3301 47.5246 16.8335 46.5179 17.6182 46.0441 18.7878 46.0293 19.6021 46.0145 19.8093 46.0737 20.3423 46.4438 21.1566 47.0212 21.6156 47.8503 21.6156 48.7831 21.6156 49.9823 20.6384 51.2111 19.4688 51.5072 18.6693 51.7145 18.5805 51.6997 17.8402 51.4332Z" fill="#E02D27" transform="matrix(1.00398 0 0 -1 565.4 477.712)"/><path d="M42.7425 51.5072C41.4841 51.2111 40.7142 50.1896 40.7142 48.7831 40.7142 47.8651 41.0844 47.1249 41.8987 46.4438 42.2984 46.1033 42.5057 46.0441 43.32 46.0441 44.4451 46.0441 44.9041 46.2514 45.6296 47.0657 46.9472 48.5758 46.1773 50.9594 44.2083 51.4924 43.4384 51.6849 43.5124 51.6849 42.7425 51.5072Z" fill="#E02D27" transform="matrix(1.00398 0 0 -1 565.4 477.712)"/><path d="M22.2966 47.1397C21.5711 46.4142 22.415 45.6296 24.6506 44.9485 25.1392 44.8005 25.7462 44.5932 25.9831 44.5044 26.8566 44.149 27.582 44.6376 27.3156 45.3927 27.1971 45.7332 26.975 45.8812 26.2052 46.1477 25.2724 46.4734 24.6358 46.7399 23.8067 47.1693 23.2885 47.4506 22.5779 47.4358 22.2966 47.1397Z" fill="#E02D27" transform="matrix(1.00398 0 0 -1 565.4 477.712)"/><path d="M37.9753 46.9324C37.4867 46.7103 36.7909 46.3994 36.4207 46.2662 35.1179 45.7776 35.0142 45.7036 34.9698 45.1114 34.9402 44.7116 34.9846 44.534 35.1623 44.4748 35.5324 44.3267 36.8649 44.6672 38.227 45.2594 40.2257 46.1181 40.6402 46.5475 40.0036 47.1249 39.6187 47.4802 38.9968 47.421 37.9753 46.9324Z" fill="#E02D27" transform="matrix(1.00398 0 0 -1 565.4 477.712)"/><path d="M29.9065 46.6067C29.5511 46.4142 29.0478 46.0145 28.8109 45.7036 28.4111 45.2002 28.3519 45.0077 28.3519 44.2231 28.3519 43.4384 28.4259 43.2015 28.8405 42.6093 30.4098 40.3441 33.6374 41.2176 33.9927 44.0158 34.0963 44.8597 33.5781 45.8072 32.6454 46.4586 31.7719 47.0509 30.8836 47.0953 29.9065 46.6067Z" fill="#E02D27" transform="matrix(1.00398 0 0 -1 565.4 477.712)"/></g></svg>