<?xml version="1.0" encoding="utf-8"?>
<svg height="1024" version="1.1" width="1024" xmlns="http://www.w3.org/2000/svg">
<path d="M0 0 C337.92 0 675.84 0 1024 0 C1024 337.92 1024 675.84 1024 1024 C686.08 1024 348.16 1024 0 1024 C0 686.08 0 348.16 0 0 Z " fill="none" transform="translate(0,0)"/>
<path d="M0 0 C0.81984375 0.61488281 1.6396875 1.22976563 2.484375 1.86328125 C17.43573303 13.44826208 30.97590801 27.64834567 42 43 C43.15822266 44.57587891 43.15822266 44.57587891 44.33984375 46.18359375 C50.24313317 54.42801675 55.20932188 63.07654245 60 72 C60.60714844 73.10730469 61.21429687 74.21460938 61.83984375 75.35546875 C87.47730011 124.0143145 90.99095296 183.60474061 75.0390625 235.80078125 C65.75297078 264.69745188 51.89922364 291.0117272 32 314 C31.30648438 314.804375 30.61296875 315.60875 29.8984375 316.4375 C20.05379757 327.60669148 9.68528493 337.81978434 -2.26904297 346.70898438 C-3.93384146 347.95065637 -5.57843871 349.21564829 -7.22265625 350.484375 C-23.11872197 362.52307839 -41.22972067 371.42880037 -60 378 C-60.87672363 378.30776367 -61.75344727 378.61552734 -62.65673828 378.93261719 C-99.13494471 391.45625613 -140.23803435 395.20539746 -178 386 C-179.29647461 385.69521729 -179.29647461 385.69521729 -180.61914062 385.38427734 C-186.12628702 384.07329683 -191.57060827 382.60087012 -197 381 C-198.02351562 380.70609375 -199.04703125 380.4121875 -200.1015625 380.109375 C-253.56543919 363.54310335 -299.09567352 323.15418251 -325 274 C-325.39380859 273.26023926 -325.78761719 272.52047852 -326.19335938 271.75830078 C-352.13891839 222.29007206 -357.41378501 162.84189801 -341.234375 109.47460938 C-323.4362955 53.15764703 -284.40496381 5.63703402 -231.890625 -21.6875 C-157.7761607 -59.18616216 -65.61703397 -51.77880474 0 0 Z " fill="none" transform="translate(645,340)"/>
<path d="M0 0 C2.06853547 1.00442698 4.0559701 2.09987961 6.05102539 3.24291992 C12.115841 6.62921033 18.26235117 9.81091939 24.48239136 12.90130615 C29.79870625 15.54586834 35.09055456 18.23517013 40.37133789 20.94995117 C41.16509323 21.35796463 41.95884857 21.76597809 42.7766571 22.18635559 C44.4086548 23.02564268 46.04054553 23.86513778 47.67233276 24.70483398 C61.72559194 31.93487705 75.7957302 39.1241785 89.95678711 46.14135742 C93.32564831 47.81282784 96.68810001 49.4970443 100.05102539 51.18041992 C99.05102539 54.18041992 99.05102539 54.18041992 95.79711914 55.94213867 C94.36563556 56.59451096 92.92914555 57.23597975 91.48852539 57.86791992 C85.86059608 60.38780773 80.30372903 63.02351908 74.79199219 65.78881836 C73.74511073 66.31316924 73.74511073 66.31316924 72.67708015 66.84811306 C66.24387048 70.07480958 59.82838695 73.33604845 53.41464233 76.60121155 C47.91044539 79.40236583 42.3981029 82.18736938 36.88489342 84.9707346 C32.71446339 87.07699187 28.5473103 89.18929728 24.38647461 91.31445312 C20.31609358 93.39307353 16.23811045 95.45599714 12.15437698 97.5082531 C10.61020064 98.28770854 9.06884245 99.07277414 7.53046799 99.86361885 C5.39006797 100.96283575 3.24050069 102.0416401 1.08764648 103.11621094 C0.46110168 103.44386444 -0.16544312 103.77151794 -0.81097412 104.10910034 C-4.94700334 106.13862977 -7.52751853 106.44484291 -11.94897461 105.18041992 C-14.08139038 104.35472107 -14.08139038 104.35472107 -16.0480957 103.35791016 C-16.79682953 102.98339218 -17.54556335 102.60887421 -18.31698608 102.2230072 C-19.11077667 101.81578934 -19.90456726 101.40857147 -20.72241211 100.98901367 C-21.56381744 100.56548111 -22.40522278 100.14194855 -23.27212524 99.70558167 C-25.95994184 98.35052627 -28.64200387 96.98450307 -31.32397461 95.61791992 C-33.08792158 94.72590007 -34.85224145 93.83461721 -36.61694336 92.9440918 C-40.08854004 91.19108294 -43.55812082 89.43418079 -47.02612305 87.67407227 C-53.38795105 84.44767907 -59.76903026 81.2601793 -66.15240479 78.07669067 C-68.98142828 76.66535058 -71.80888786 75.25088577 -74.63647461 73.83666992 C-76.19736816 73.05622314 -76.19736816 73.05622314 -77.78979492 72.26000977 C-90.50952148 65.90014648 -103.22924805 59.5402832 -115.94897461 53.18041992 C-113.91334928 50.98362054 -112.05423002 49.54836364 -109.37402344 48.22265625 C-108.66510452 47.86831009 -107.95618561 47.51396393 -107.2257843 47.14888 C-106.46025742 46.77385849 -105.69473053 46.39883698 -104.90600586 46.01245117 C-104.10474777 45.61394455 -103.30348969 45.21543793 -102.47795105 44.80485535 C-99.90855876 43.52853973 -97.33514724 42.26057853 -94.76147461 40.99291992 C-93.0795573 40.15949369 -91.39791383 39.32551457 -89.71655273 38.4909668 C-86.39254426 36.84199097 -83.06731434 35.1955217 -79.7409668 33.55126953 C-69.12913251 28.30357864 -58.54693429 23.01402833 -48.07397461 17.49291992 C-45.09870633 15.94288438 -42.12176661 14.39608876 -39.14477539 12.84936523 C-36.9284053 11.69190871 -34.7161028 10.52664281 -32.50708008 9.35522461 C-29.01808949 7.50723208 -25.51621585 5.68582756 -22.01147461 3.86791992 C-20.92817871 3.28631104 -19.84488281 2.70470215 -18.72875977 2.10546875 C-11.72879492 -1.48654639 -7.52229678 -3.16326573 0 0 Z " fill="#1C488F" transform="translate(519.948974609375,450.819580078125)"/>
<path d="M0 0 C0 21.12 0 42.24 0 64 C-24.86546013 77.56297826 -24.86546013 77.56297826 -35.65213013 83.05813599 C-45.53033047 88.09308004 -55.3483939 93.21601632 -65.0625 98.5625 C-68.37351343 100.37772867 -71.68564004 102.19088841 -75 104 C-75.72574219 104.39638672 -76.45148438 104.79277344 -77.19921875 105.20117188 C-79.14551924 106.25465723 -81.10109663 107.28747802 -83.0625 108.3125 C-84.10535156 108.86550781 -85.14820313 109.41851563 -86.22265625 109.98828125 C-90.12824535 111.41099233 -92.6535228 110.56973131 -96.42163086 108.9753418 C-97.26089111 108.55422119 -98.10015137 108.13310059 -98.96484375 107.69921875 C-99.91810547 107.22291016 -100.87136719 106.74660156 -101.85351562 106.25585938 C-102.87123047 105.73830078 -103.88894531 105.22074219 -104.9375 104.6875 C-106.00291016 104.15060547 -107.06832031 103.61371094 -108.16601562 103.06054688 C-116.09856947 99.03556248 -123.9114564 94.81615582 -131.69360352 90.50927734 C-138.50136093 86.76174221 -145.40748007 83.25268899 -152.375 79.8125 C-177.69251629 67.30748371 -177.69251629 67.30748371 -181 64 C-181.0940067 62.03630847 -181.11743381 60.06920801 -181.11352539 58.10327148 C-181.11344986 56.84203964 -181.11337433 55.5808078 -181.11329651 54.28135681 C-181.1081891 52.89460206 -181.10297309 51.50784771 -181.09765625 50.12109375 C-181.09579201 48.71004791 -181.09436814 47.29900143 -181.09336853 45.88795471 C-181.08954379 42.16759465 -181.0797139 38.4472734 -181.06866455 34.72692871 C-181.05844948 30.93319219 -181.05387071 27.13944942 -181.04882812 23.34570312 C-181.03809158 15.89711769 -181.0210157 8.44856428 -181 1 C-177.62404653 1.63132813 -174.94133029 2.36186102 -171.91796875 4.00390625 C-171.15959717 4.4105249 -170.40122559 4.81714355 -169.61987305 5.23608398 C-168.81718994 5.67380127 -168.01450684 6.11151855 -167.1875 6.5625 C-165.46944457 7.48306829 -163.7506841 8.40232187 -162.03125 9.3203125 C-161.17789062 9.77696289 -160.32453125 10.23361328 -159.4453125 10.70410156 C-156.05219366 12.50229194 -152.62723644 14.23056647 -149.1875 15.9375 C-148.55328125 16.25291748 -147.9190625 16.56833496 -147.265625 16.89331055 C-145.17778541 17.93029485 -143.08891324 18.96518028 -141 20 C-129.38121763 25.76225161 -117.79294553 31.5639977 -106.34057617 37.65185547 C-104.91955617 38.4070762 -103.49653843 39.15855329 -102.07128906 39.90576172 C-100.64828165 40.65752023 -99.23389175 41.4257496 -97.82714844 42.20751953 C-96.77962402 42.77188721 -96.77962402 42.77188721 -95.7109375 43.34765625 C-95.0926709 43.68933838 -94.4744043 44.03102051 -93.83740234 44.38305664 C-90.42716167 45.52811088 -88.17368729 44.0812218 -85.0168457 42.60498047 C-83.79703409 41.98790244 -82.57934654 41.36661593 -81.36328125 40.7421875 C-79.92029185 40.01098417 -78.4770793 39.28022109 -77.03369141 38.54980469 C-76.2349762 38.14435425 -75.43626099 37.73890381 -74.61334229 37.32116699 C-69.66378567 34.81893417 -64.69523695 32.35468148 -59.73046875 29.8828125 C-57.49923052 28.76976864 -55.26811271 27.65648337 -53.03710938 26.54296875 C-49.61570152 24.83532031 -46.19401574 23.12824553 -42.77124023 21.42333984 C-30.61733717 15.3686546 -18.48405441 9.29305962 -6.51029968 2.88748169 C-1.09774155 0 -1.09774155 0 0 0 Z " fill="#1C488F" transform="translate(603,540)"/>
<path d="M0 0 C2.52571053 1.15123873 4.98924539 2.39017455 7.45596313 3.66290283 C8.37903763 4.12749908 9.30211212 4.59209534 10.25315857 5.07077026 C13.20807602 6.56166969 16.15417253 8.0691631 19.10049438 9.57696533 C21.03159689 10.55329084 22.96323316 11.52856135 24.89541626 12.50274658 C33.56798304 16.88671636 42.19976828 21.3396927 50.78018188 25.90118408 C59.32469763 30.43466677 67.96985943 34.76183789 76.62783813 39.07305908 C77.3243643 39.42000069 78.02089046 39.76694229 78.73852348 40.12439728 C85.26035357 43.37210912 91.78477942 46.61458722 98.31118774 49.85308838 C101.9203788 51.64429292 105.52760977 53.43939388 109.1336689 55.23689461 C110.49443868 55.91418955 111.85596412 56.58996858 113.21827507 57.26415825 C115.10915884 58.19998386 116.99752067 59.14072512 118.88540649 60.08258057 C119.95616928 60.61423325 121.02693207 61.14588593 122.13014221 61.69364929 C124.61323624 63.03949532 126.78590854 64.34728339 128.91299438 66.20196533 C129.98748395 71.02427452 127.29549223 74.99933804 125.10049438 79.13946533 C124.7440686 79.8297583 124.38764282 80.52005127 124.02041626 81.23126221 C123.31930651 82.5884563 122.61097021 83.94194531 121.89492798 85.2913208 C120.99529099 87.04183276 120.19283128 88.8414064 119.40127563 90.64337158 C117.91299438 93.20196533 117.91299438 93.20196533 116.05383301 93.96038818 C113.48798217 94.24992469 112.4415905 93.81704694 110.17129517 92.62579346 C109.44647949 92.25314865 108.72166382 91.88050385 107.97488403 91.49656677 C107.19391357 91.0796608 106.41294312 90.66275482 105.60830688 90.23321533 C104.7849585 89.80619827 103.96161011 89.37918121 103.11331177 88.93922424 C100.41578891 87.53754453 97.72711626 86.11968511 95.03799438 84.70196533 C92.23870168 83.24291233 89.43724519 81.78807081 86.63574219 80.33326721 C84.7543237 79.35576174 82.87364931 78.3768228 80.99371338 77.39646912 C73.50071933 73.49135761 65.96242367 69.68557979 58.39190674 65.93341064 C50.00016405 61.77380051 41.62869181 57.58400421 33.35049438 53.20196533 C32.64271851 52.82950684 31.93494263 52.45704834 31.20571899 52.07330322 C27.5907501 50.1663882 23.98511973 48.2439149 20.39541626 46.28985596 C17.13026519 44.51280783 13.85460742 42.75637614 10.57318115 41.00958252 C9.26815795 40.30992001 7.96700771 39.60298034 6.67004395 38.88848877 C4.84772369 37.88555955 3.01344844 36.90876491 1.17471313 35.93634033 C0.1121228 35.36109619 -0.95046753 34.78585205 -2.04525757 34.19317627 C-6.76880175 32.65392036 -9.51146879 34.45778579 -13.81820679 36.49200439 C-14.74609009 36.97894775 -15.67397339 37.46589111 -16.62997437 37.96759033 C-17.68942261 38.52051758 -18.74887085 39.07344482 -19.84042358 39.64312744 C-20.97367065 40.24004395 -22.10691772 40.83696045 -23.27450562 41.45196533 C-24.47884901 42.08207527 -25.68344374 42.71170504 -26.88827515 43.34088135 C-29.38730439 44.64638779 -31.88524601 45.95394094 -34.38241577 47.26300049 C-40.06596436 50.24039713 -45.76451675 53.18885976 -51.46200562 56.13946533 C-53.7055409 57.30213757 -55.94903001 58.46489891 -58.19247437 59.62774658 C-59.88122681 60.50293945 -59.88122681 60.50293945 -61.60409546 61.39581299 C-64.584235 62.94124074 -67.56349793 64.48833412 -70.5423584 66.03622437 C-73.61900469 67.63455817 -76.6965098 69.23123206 -79.77450562 70.82696533 C-80.3767395 71.13920044 -80.97897339 71.45143555 -81.59945679 71.77313232 C-91.15777437 76.72469852 -100.76148529 81.58104532 -110.41390991 86.34698486 C-111.32439087 86.79799561 -112.23487183 87.24900635 -113.17294312 87.71368408 C-114.02082397 88.13311279 -114.86870483 88.5525415 -115.74227905 88.98468018 C-117.89633709 90.10297811 -119.93930121 91.31868185 -122.00106812 92.59649658 C-125.08700562 94.20196533 -125.08700562 94.20196533 -127.34481812 94.21759033 C-134.03997144 90.31458615 -138.72541316 77.21323008 -141.08700562 70.20196533 C-140.9393158 67.69239807 -140.9393158 67.69239807 -140.08700562 65.20196533 C-138.10029602 63.66746521 -138.10029602 63.66746521 -135.45394897 62.37457275 C-134.46458847 61.88023239 -133.47522797 61.38589203 -132.45588684 60.87657166 C-131.37380447 60.35875626 -130.29172211 59.84094086 -129.17684937 59.30743408 C-128.06201675 58.75638504 -126.94718414 58.205336 -125.79856873 57.6375885 C-122.82030623 56.16941777 -119.83527908 54.71725089 -116.84573364 53.27233887 C-113.86726322 51.82847096 -110.89853284 50.36487684 -107.92880249 48.90313721 C-103.34748896 46.65090964 -98.76207196 44.40743673 -94.17245483 42.17218018 C-87.50933034 38.92486697 -80.87688573 35.61964511 -74.2545166 32.29025269 C-69.70188789 30.00441963 -65.1438139 27.7294513 -60.58700562 25.45196533 C-58.5244872 24.42075215 -56.4619874 23.38950175 -54.39950562 22.35821533 C-50.19117228 20.25404867 -45.98283895 18.149882 -41.77450562 16.04571533 C-40.74631714 15.53137939 -39.71812866 15.01704346 -38.65878296 14.48712158 C-36.62864052 13.47253442 -34.59772856 12.4594854 -32.56600952 11.44805908 C-28.10306836 9.22437141 -23.65152352 6.98626311 -19.23544312 4.67071533 C-18.50518921 4.29205322 -17.7749353 3.91339111 -17.02255249 3.52325439 C-15.70342708 2.83743422 -14.38907755 2.1422986 -13.08114624 1.43536377 C-8.4467154 -0.95935049 -4.98796696 -1.90731186 0 0 Z " fill="#1C488F" transform="translate(518.0870056152344,384.79803466796875)"/>
<path d="M0 0 C9.37297444 8.8190506 14.13287223 18.55136655 15.15234375 31.359375 C15.520036 44.83161886 12.00199957 57.62491792 2.625 67.6875 C-5.60090747 75.24448753 -16.90885954 81.07384711 -28.125 81.875 C-28.84945312 81.93816406 -29.57390625 82.00132812 -30.3203125 82.06640625 C-42.10193136 82.65359304 -52.99395563 78.11590429 -62.125 70.875 C-70.34320635 63.38383876 -77.52440249 53.38163524 -78.24609375 41.95825195 C-78.8678175 25.60654714 -76.09677073 13.5812786 -65.125 0.875 C-45.78548806 -15.95695772 -19.66644718 -16.56121868 0 0 Z " fill="#1C488F" transform="translate(544.125,192.125)"/>
<path d="M0 0 C2.01661966 1.43244016 3.78816686 2.95859687 5.59375 4.6484375 C6.34140625 5.29554688 7.0890625 5.94265625 7.859375 6.609375 C16.14587261 14.20990427 21.98046113 24.43252904 22.73828125 35.8203125 C22.78168018 38.10861995 22.71155369 40.36304592 22.59375 42.6484375 C22.57570313 43.35742188 22.55765625 44.06640625 22.5390625 44.796875 C21.77785781 57.20003382 15.14998263 67.4662683 6.40625 75.8359375 C-4.84130917 85.47399746 -18.02967113 87.60890883 -32.40625 86.6484375 C-43.86704788 84.77246096 -54.9452986 77.57575548 -62.09375 68.5078125 C-69.66747301 57.07149075 -72.38960937 42.70606463 -69.74609375 29.30078125 C-66.32256099 16.62926389 -58.77092894 6.55600663 -47.41015625 -0.109375 C-31.59843792 -8.2817238 -15.67716638 -8.80568112 0 0 Z " fill="#1C488F" transform="translate(738.40625,676.3515625)"/>
<path d="M0 0 C10.11509824 7.7795523 16.59892967 17.31080349 19.5625 29.75 C21.12055455 44.20929653 18.83905905 57.20435456 9.5625 68.75 C2.0383329 77.51344168 -7.78719002 83.63551003 -19.44580078 84.98193359 C-33.13899613 85.98141389 -44.41740435 83.21072603 -55.4375 74.75 C-56.25089844 74.16347656 -57.06429688 73.57695313 -57.90234375 72.97265625 C-66.09739106 65.78778427 -71.67500853 54.58330758 -72.60449219 43.81542969 C-73.49470491 30.20969631 -71.27419725 19.27383374 -62.6953125 8.2890625 C-46.22116002 -10.23723355 -20.71530833 -13.63016453 0 0 Z " fill="#1C488F" transform="translate(336.4375,678.25)"/>
<path d="M0 0 C10.81359969 7.91644073 18.95673312 18.45500593 21.1328125 31.8671875 C22.65798752 45.74204356 19.98355926 57.27369643 11.4140625 68.42578125 C4.60890694 76.88149144 -5.54923419 84.04416154 -16.5859375 85.42578125 C-33.03079074 86.53437807 -43.71428101 84.27419833 -56.5859375 73.42578125 C-66.07819039 64.46625684 -71.62714391 53.47709587 -72.01782227 40.33837891 C-72.05234417 27.42718669 -68.71418976 17.69755355 -60.0234375 7.86328125 C-43.82639593 -8.33376032 -19.7306455 -12.01125399 0 0 Z " fill="#1C488F" transform="translate(537.5859375,753.57421875)"/>
<path d="M0 0 C10.19752848 7.4274019 17.80674498 16.92257122 20.55078125 29.42578125 C21.50146617 44.87051495 20.08366365 58.27556566 9.55078125 70.42578125 C2.58974201 77.96590174 -6.78376742 84.62280934 -17.359375 85.6027832 C-33.73044725 86.06888338 -45.77414222 83.6727069 -58.13671875 72.17578125 C-66.4404457 63.33384978 -71.29395876 51.46524722 -71.88671875 39.30078125 C-70.09848484 23.46213802 -65.16898308 12.90231991 -53.09765625 2.375 C-37.5843951 -9.4241742 -16.31119233 -10.48390831 0 0 Z " fill="#1C488F" transform="translate(821.44921875,470.57421875)"/>
<path d="M0 0 C10.55758723 7.72901863 18.39438029 18.10357637 21.12890625 31.0859375 C22.59545855 43.11970229 21.90287139 55.57230374 14.6640625 65.73828125 C13.60738841 66.99044005 12.52281795 68.21949639 11.4140625 69.42578125 C10.8159375 70.11414063 10.2178125 70.8025 9.6015625 71.51171875 C4.81747434 76.70091115 -0.10427555 79.72252887 -6.5859375 82.42578125 C-7.24722656 82.74546875 -7.90851563 83.06515625 -8.58984375 83.39453125 C-18.01737372 87.3795537 -31.9114416 86.96965624 -41.42578125 83.4609375 C-53.73905592 77.56036284 -62.63485884 67.95990584 -67.84375 55.390625 C-72.11656514 43.09507653 -72.04482226 31.30972507 -66.5859375 19.42578125 C-62.73207619 12.06929662 -58.2795409 6.3524797 -51.5859375 1.42578125 C-50.94785156 0.95398438 -50.30976563 0.4821875 -49.65234375 -0.00390625 C-34.85651221 -10.06626251 -15.00368975 -9.13366612 0 0 Z " fill="#1C488F" transform="translate(252.5859375,470.57421875)"/>
<path d="M0 0 C9.66305304 7.29465769 15.74394689 17.25199331 18.1875 29.0625 C19.21295587 42.90615421 16.51433636 55.67135432 7.62109375 66.6875 C2.89410984 71.72961617 -2.41710843 75.32334355 -8.5625 78.4375 C-9.37074219 78.85257812 -10.17898438 79.26765625 -11.01171875 79.6953125 C-21.40569493 84.24765123 -34.00803953 84.13387698 -44.625 80.375 C-50.29690416 77.85018012 -54.97353702 74.59263245 -59.5625 70.4375 C-60.47 69.633125 -61.3775 68.82875 -62.3125 68 C-71.93163628 57.04487257 -75.15370525 44.73827567 -74.5625 30.4375 C-73.35069473 18.85582015 -66.00237257 8.04966803 -57.5625 0.4375 C-39.26918464 -12.79298649 -18.59406544 -12.52410193 0 0 Z " fill="#1C488F" transform="translate(742.5625,267.5625)"/>
<path d="M0 0 C13.06889121 6.62726443 23.15249057 17.18129493 27.99609375 31.078125 C31.49688324 44.11554795 29.145069 55.76985633 22.8984375 67.46875 C15.7629663 79.10873654 4.57878211 86.04420186 -8.5625 89.3125 C-20.56265214 91.38820199 -33.31677876 88.45115734 -43.4765625 81.68359375 C-53.67046792 73.85425402 -59.78055682 64.51081798 -62.75 51.9375 C-64.27797633 38.75415187 -62.42860053 26.96778627 -54.4375 16.0625 C-41.08551434 0.38967564 -20.09215616 -7.94825892 0 0 Z " fill="#1C488F" transform="translate(326.75,261.0625)"/>
<path d="M0 0 C1.80791016 0.00193359 1.80791016 0.00193359 3.65234375 0.00390625 C8.24440102 0.58777607 10.8298169 2.2048169 14.0625 5.4375 C14.54866071 13.47721497 11.50908179 21.58135322 9.125 29.125 C8.8282991 30.07134308 8.8282991 30.07134308 8.52560425 31.0368042 C3.37541196 47.37858759 -3.4158313 62.83668766 -11.25 78.0625 C-11.64630615 78.83867676 -12.0426123 79.61485352 -12.45092773 80.41455078 C-14.75815408 84.75568366 -17.06373083 88.28471626 -20.9375 91.4375 C-24.83731236 92.62774794 -28.51919658 92.0522595 -32.2265625 90.4453125 C-36.0257451 88.22106378 -38.22029472 86.56177993 -39.9375 82.4375 C-39.9375 74.25961721 -36.76169967 68.52026209 -32.9375 61.4375 C-25.48098162 47.09937933 -20.10891354 32.37732386 -15.1953125 17.01171875 C-14.92710693 16.18091797 -14.65890137 15.35011719 -14.38256836 14.49414062 C-13.89595028 12.97234177 -13.42170495 11.44649996 -12.96313477 9.91601562 C-10.5678363 2.30817426 -8.0469091 -0.12881925 0 0 Z " fill="#1C488F" transform="translate(778.9375,571.5625)"/>
<path d="M0 0 C15.1611994 16.20468276 23.16846416 41.83139216 30.1875 62.4375 C30.43805145 63.1595462 30.68860291 63.88159241 30.94674683 64.6255188 C31.66263627 66.70207443 32.35619318 68.78475235 33.04296875 70.87109375 C33.44539795 72.07693115 33.84782715 73.28276855 34.26245117 74.52514648 C35.0901398 78.42468051 34.96157488 81.14105204 34 85 C28.74897813 89.43419625 23.87404926 90.40438548 17.1796875 90.26171875 C13.61939856 89.83422886 12.28894787 88.74673744 10 86 C7.69255001 81.60661522 6.27022386 76.86666403 4.76953125 72.15234375 C-0.78816383 54.7777824 -7.81969854 38.01856387 -16.95214844 22.20141602 C-19.48188139 17.67144094 -20.88669924 14.32662082 -20 9 C-18.171875 6.63671875 -18.171875 6.63671875 -15.75 4.6875 C-14.96109375 4.03136719 -14.1721875 3.37523437 -13.359375 2.69921875 C-8.54955406 -0.76480792 -5.93473753 -1.58966184 0 0 Z " fill="#1C488F" transform="translate(758,359)"/>
<path d="M0 0 C3.68402393 4.2479677 4.7493938 9.1814867 6.28515625 14.51953125 C6.98065767 16.80321876 7.67986288 19.08578164 8.3828125 21.3671875 C8.71941895 22.46691895 9.05602539 23.56665039 9.40283203 24.69970703 C14.59967132 41.24096449 22.43441806 57.71271381 31.38671875 72.55078125 C32.5458795 75.15182488 32.67221632 76.88655856 32.34765625 79.70703125 C29.04056004 84.61756805 25.74638664 87.28691073 20.34765625 89.70703125 C16.72265625 90.26953125 16.72265625 90.26953125 13.34765625 89.70703125 C9.33080966 86.26035906 6.67877548 82.36768558 4.16015625 77.76953125 C3.78141357 77.08568359 3.4026709 76.40183594 3.01245117 75.69726562 C-4.41636898 62.00118406 -10.75707194 47.59827438 -15.88867188 32.88671875 C-16.44903827 31.2873098 -17.01951023 29.69143203 -17.59570312 28.09765625 C-18.61090487 25.28572415 -19.60288105 22.4664863 -20.58984375 19.64453125 C-21.06877075 18.32279907 -21.06877075 18.32279907 -21.55737305 16.97436523 C-23.30403873 11.86342492 -24.18249597 8.07987342 -22.65234375 2.70703125 C-16.68833164 -2.57925222 -7.18338136 -3.50176617 0 0 Z " fill="#1C488F" transform="translate(254.65234375,573.29296875)"/>
<path d="M0 0 C5.23480483 2.18646094 10.24822742 4.87169655 13 10 C12.82209046 16.09574272 9.53165337 20.74836819 6.5625 25.875 C-2.67144315 42.35737435 -9.74187329 59.4435821 -14.66918945 77.69116211 C-17.14015839 86.56364608 -17.14015839 86.56364608 -21 89 C-26.51544726 89.96912252 -32.92873045 90.27275997 -37.75 87.0625 C-40.99260688 84.09011036 -40.99260688 84.09011036 -41.26953125 80.71484375 C-41.18079617 74.74840297 -39.40064276 69.23621723 -37.6875 63.5625 C-37.33284668 62.38179932 -36.97819336 61.20109863 -36.61279297 59.98461914 C-30.47506877 40.25847298 -21.94035619 16.7457951 -8 1 C-5.05124123 -0.47437939 -3.30820503 -0.36089509 0 0 Z " fill="#1C488F" transform="translate(274,360)"/>
<path d="M0 0 C2.36497439 1.86708505 3.66030715 3.32061431 5 6 C5.17682621 8.47556696 5.27730822 10.89749895 5.3125 13.375 C5.35600586 14.38433594 5.35600586 14.38433594 5.40039062 15.4140625 C5.44188741 18.65719612 5.36261565 20.54920163 3.29833984 23.11547852 C0.77010499 25.18850219 -1.05727902 25.91002328 -4.19921875 26.75390625 C-5.7474231 27.19089844 -5.7474231 27.19089844 -7.3269043 27.63671875 C-8.99039917 28.09498047 -8.99039917 28.09498047 -10.6875 28.5625 C-28.62079406 33.79079233 -45.77591799 41.02783083 -61.81640625 50.63671875 C-65.9962254 52.4266045 -68.47346894 52.48350535 -73 52 C-75.2421875 50.609375 -75.2421875 50.609375 -76.875 48.75 C-77.42929687 48.14671875 -77.98359375 47.5434375 -78.5546875 46.921875 C-81.77624957 42.63806814 -82.66520625 39.41667946 -82 34 C-76.81834327 27.97525835 -69.92020696 24.64140401 -63 21 C-62.38672852 20.67628418 -61.77345703 20.35256836 -61.14160156 20.01904297 C-17.66173027 -2.52310432 -17.66173027 -2.52310432 0 0 Z " fill="#1C488F" transform="translate(445,232)"/>
<path d="M0 0 C3.6529747 1.09287256 7.26132442 2.2884826 10.86328125 3.53662109 C11.51546631 3.7583197 12.16765137 3.98001831 12.83959961 4.20843506 C59.5827123 20.12652135 59.5827123 20.12652135 69.86328125 32.22412109 C70.85701927 37.8553032 69.05006513 41.43757671 66.34765625 46.20849609 C64.61849799 48.55651099 63.45627296 49.84931341 60.86328125 51.22412109 C54.07567807 52.06813863 50.35487909 50.31739294 44.67578125 46.78662109 C29.35892014 37.83690646 13.46981021 31.72054106 -3.60742188 26.96191406 C-4.65994141 26.66043457 -5.71246094 26.35895508 -6.796875 26.04833984 C-7.73152588 25.79141357 -8.66617676 25.5344873 -9.62915039 25.26977539 C-12.58831941 24.03580393 -14.14386134 22.72657284 -16.13671875 20.22412109 C-16.65429688 18.27294922 -16.65429688 18.27294922 -16.66796875 16.25537109 C-16.673125 15.51931641 -16.67828125 14.78326172 -16.68359375 14.02490234 C-16.668125 13.26564453 -16.65265625 12.50638672 -16.63671875 11.72412109 C-16.6521875 10.96486328 -16.66765625 10.20560547 -16.68359375 9.42333984 C-16.65908854 5.92522144 -16.44441995 3.75441465 -14.66796875 0.69287109 C-9.81114781 -2.12528427 -5.2150985 -1.28997377 0 0 Z " fill="#1C488F" transform="translate(591.13671875,232.77587890625)"/>
<path d="M0 0 C3.33364012 1.36730878 6.45834179 3.09932874 9.625 4.8125 C18.39749402 9.37614301 27.29388779 13.32862982 36.5 16.9375 C37.63131348 17.38520752 38.76262695 17.83291504 39.92822266 18.29418945 C46.80474363 20.95136848 53.69495779 23.13853277 60.82617188 25.01000977 C64.14038091 26.04378805 67.01111225 27.23146478 70 29 C71.14544249 32.43632747 71.2397802 35.25431955 71.3125 38.875 C71.36857422 40.69644531 71.36857422 40.69644531 71.42578125 42.5546875 C70.90730087 46.75009753 70.29970423 48.33387953 67 51 C60.17081673 52.49561074 53.17172184 49.98189016 46.6875 48 C45.64005615 47.68603271 44.5926123 47.37206543 43.51342773 47.04858398 C-1.89262465 33.10737535 -1.89262465 33.10737535 -16 19 C-16.77598769 13.45723081 -15.49339938 10.24413815 -12.421875 5.80078125 C-8.67527268 1.05577117 -6.0584161 -0.69455168 0 0 Z " fill="#1C488F" transform="translate(379,738)"/>
<path d="M0 0 C4.32492288 3.67151726 7.40216457 7.32036712 9.3125 12.6875 C8.90247422 17.03377327 7.15041802 19.17083467 4 22 C0.39058158 24.38742331 -3.39321732 26.35608829 -7.25 28.3125 C-8.3524707 28.87718994 -9.45494141 29.44187988 -10.59082031 30.02368164 C-25.66245787 37.5520138 -41.49644307 42.80374611 -57.625 47.5625 C-58.4715918 47.81443115 -59.31818359 48.0663623 -60.19042969 48.32592773 C-64.85092905 49.63639824 -69.1347942 50.7147648 -74 50 C-77.35313594 47.21842133 -77.93496872 45.47099859 -78.53125 41.15234375 C-78.54178381 39.74739671 -78.53089965 38.34214671 -78.5 36.9375 C-78.51546875 36.23044922 -78.5309375 35.52339844 -78.546875 34.79492188 C-78.52222064 31.51280954 -78.37977758 29.47479015 -76.30004883 26.87475586 C-73.72804788 24.77833348 -71.87109129 24.09462495 -68.66796875 23.2890625 C-67.62962891 23.01715088 -66.59128906 22.74523926 -65.52148438 22.46508789 C-64.42126953 22.18785889 -63.32105469 21.91062988 -62.1875 21.625 C-44.31701689 16.86302086 -27.60206034 9.80205497 -11.375 0.9375 C-7.12707421 -1.15058514 -4.57376438 -1.86338549 0 0 Z " fill="#1C488F" transform="translate(653,739)"/>
<path d="M0 0 C0.33 0.66 0.66 1.32 1 2 C-1 5 -1 5 -2.953125 5.3984375 C-8.06356682 5.34629013 -11.52817986 4.75188932 -16 2 C-15.34 1.67 -14.68 1.34 -14 1 C-13.34 1.33 -12.68 1.66 -12 2 C-9.89044938 2.19738723 -9.89044938 2.19738723 -7.5625 2.1875 C-6.38880859 2.20876953 -6.38880859 2.20876953 -5.19140625 2.23046875 C-2.70794013 2.14086064 -2.70794013 2.14086064 0 0 Z " fill="none" transform="translate(761,660)"/>
<path d="M0 0 C1.60875 0.3403125 1.60875 0.3403125 3.25 0.6875 C2.92 1.3475 2.59 2.0075 2.25 2.6875 C-1.05 2.6875 -4.35 2.6875 -7.75 2.6875 C-3.75 -0.3125 -3.75 -0.3125 0 0 Z " fill="#1C488F" transform="translate(754.75,358.3125)"/>
<path d="M0 0 C3.93846154 3.32307692 3.93846154 3.32307692 4.25 6.75 C4.1675 7.4925 4.085 8.235 4 9 C3.01 9 2.02 9 1 9 C0.67 6.03 0.34 3.06 0 0 Z " fill="#1C488F" transform="translate(658,746)"/>
<path d="M0 0 C4.23429756 1.31061591 8.07407404 2.94356259 12 5 C7.80761095 6.39746302 5.89298197 4.84031875 2 3 C1.34 2.67 0.68 2.34 0 2 C0 1.34 0 0.68 0 0 Z " fill="#1C488F" transform="translate(635,250)"/>
<path d="M0 0 C1.07894531 0.04640625 2.15789063 0.0928125 3.26953125 0.140625 C4.35621094 0.17671875 5.44289063 0.2128125 6.5625 0.25 C7.39394531 0.29640625 8.22539063 0.3428125 9.08203125 0.390625 C9.08203125 0.720625 9.08203125 1.050625 9.08203125 1.390625 C8.41816406 1.43960938 7.75429688 1.48859375 7.0703125 1.5390625 C0.37080765 2.10188312 0.37080765 2.10188312 -5.91796875 4.390625 C-4.20732299 1.34147397 -3.55091093 0.47535622 0 0 Z " fill="#1C488F" transform="translate(774.91796875,571.609375)"/>
<path d="M0 0 C0.66 0.33 1.32 0.66 2 1 C2 1.66 2 2.32 2 3 C1.34 3 0.68 3 0 3 C-0.268125 3.928125 -0.53625 4.85625 -0.8125 5.8125 C-1.91148371 8.76240366 -2.62418561 10.05615186 -5 12 C-3.68938409 7.76570244 -2.05643741 3.92592596 0 0 Z " fill="none" transform="translate(354,318)"/>
<path d="M0 0 C0.99 0.66 1.98 1.32 3 2 C2.01 2.33 1.02 2.66 0 3 C0 4.98 0 6.96 0 9 C-0.66 8.67 -1.32 8.34 -2 8 C-1.125 1.125 -1.125 1.125 0 0 Z " fill="#1C488F" transform="translate(233,575)"/>
<path d="M0 0 C0.66 0.33 1.32 0.66 2 1 C2 2.65 2 4.3 2 6 C1.34 6 0.68 6 0 6 C0 7.65 0 9.3 0 11 C-0.33 11 -0.66 11 -1 11 C-1.125 3.375 -1.125 3.375 0 0 Z " fill="none" transform="translate(727,543)"/>
<path d="M0 0 C1.63001953 0.01353516 1.63001953 0.01353516 3.29296875 0.02734375 C4.12441406 0.03894531 4.95585937 0.05054688 5.8125 0.0625 C5.8125 0.3925 5.8125 0.7225 5.8125 1.0625 C4.76449219 1.13597656 4.76449219 1.13597656 3.6953125 1.2109375 C2.78523438 1.28570312 1.87515625 1.36046875 0.9375 1.4375 C0.03257812 1.50710938 -0.87234375 1.57671875 -1.8046875 1.6484375 C-4.36691903 1.85818132 -4.36691903 1.85818132 -6.1875 4.0625 C-6.1875 3.4025 -6.1875 2.7425 -6.1875 2.0625 C-7.1775 1.7325 -8.1675 1.4025 -9.1875 1.0625 C-5.90230525 -0.03256492 -3.45086585 -0.03710608 0 0 Z " fill="#1C488F" transform="translate(309.1875,258.9375)"/>
<path d="M0 0 C0.66 0.33 1.32 0.66 2 1 C0.875 2.9375 0.875 2.9375 -1 5 C-4.1875 5.75 -4.1875 5.75 -7 6 C-4.74259377 3.66475218 -2.7194239 1.81294927 0 0 Z " fill="none" transform="translate(634,692)"/>
<path d="M0 0 C0.66 0.66 1.32 1.32 2 2 C0.35 3.32 -1.3 4.64 -3 6 C-3.66 5.67 -4.32 5.34 -5 5 C-3.35 3.35 -1.7 1.7 0 0 Z " fill="none" transform="translate(262,541)"/>
<path d="M0 0 C0.99 1.485 0.99 1.485 2 3 C1.67 3.66 1.34 4.32 1 5 C1.66 5 2.32 5 3 5 C3 6.98 3 8.96 3 11 C0.39665076 8.28817788 0.00543309 7.10866187 -0.1875 3.25 C-0.125625 2.1775 -0.06375 1.105 0 0 Z " fill="#1C488F" transform="translate(738,368)"/>
<path d="M0 0 C0.99 0.33 1.98 0.66 3 1 C0.03 3.475 0.03 3.475 -3 6 C-2.42655063 3.13275314 -2.1385485 2.1385485 0 0 Z " fill="none" transform="translate(353,364)"/>
</svg>